<?xml version="1.0" encoding="UTF-8" standalone="no"?>
<!DOCTYPE svg  PUBLIC '-//W3C//DTD SVG 1.1//EN'  'http://www.w3.org/Graphics/SVG/1.1/DTD/svg11.dtd'>
<svg version="1.1" xmlns="http://www.w3.org/2000/svg">
<defs>
<font id="Comfortaa-Regular" horiz-adv-x="677">
<font-face unicode-range="U+0020-2074" units-per-em="1000" descent="-200" panose-1="0 0 5 0 0 0 0 0 0 0" ascent="800" cap-height="781" x-height="547" font-family="Comfortaa" bbox="-403 -238 1056 1060" underline-thickness="50" underline-position="-150" font-weight="400"/>
<missing-glyph/>
<glyph horiz-adv-x="293" unicode=" " glyph-name="space"/>
<glyph horiz-adv-x="266" unicode="!" d="M80 770.5q11 11.5 28 11.5t28 -11.5t11 -28.5v-526q0 -16 -12 -27.5t-27 -11.5q-16 0 -27.5 11.5t-11.5 27.5v526q0 17 11 28.5zM149 99.5q17 -17.5 17 -41.5t-17 -41t-41 -17t-41 16.5t-17 41.5t17 42t41 17t41 -17.5z" glyph-name="exclam"/>
<glyph horiz-adv-x="273" unicode='&quot;' d="M172.5 770.5q11.5 11.5 27.5 11.5q17 0 28 -11.5t11 -28.5l-10 -147q0 -12 -8.5 -20t-20.5 -8q-11 0 -19.5 8t-8.5 20l-11 147q0 17 11.5 28.5zM52.5 770q11.5 11 27.5 11t27 -11.5t11 -27.5l-10 -147q0 -12 -8 -20t-20 -8q-13 0 -21 8t-9 20l-9 147q0 17 11.5 28z" glyph-name="quotedbl"/>
<glyph horiz-adv-x="724" unicode="#" d="M670 538q9 -8 9 -21q0 -17 -12 -26t-34 -9h-79l-30 -172h81q16 0 24.5 -8.5t8.5 -21.5q0 -14 -12 -24t-34 -10h-82l-36 -207q-4 -18 -15.5 -28.5t-29.5 -10.5q-14 0 -22 7.5t-8 21.5q0 6 1 10l35 207h-194l-36 -207q-3 -17 -15.5 -28t-28.5 -11q-14 0 -22.5 8t-8.5 22 l1 9l36 207h-84q-15 0 -23.5 7.5t-8.5 19.5q0 18 12 27.5t31 9.5h87l29 172h-83q-36 0 -36 30q0 16 12 25t33 9h88l36 201q3 18 15 29t29 11q14 0 22.5 -8.5t8.5 -22.5l-1 -8l-36 -202h195l36 201q2 17 14.5 28.5t29.5 11.5q15 0 22.5 -8t7.5 -21q0 -7 -1 -10l-35 -202h78 q16 0 25 -8zM479 482h-195l-29 -172h194z" glyph-name="numbersign"/>
<glyph horiz-adv-x="598" unicode="$" d="M493 56.5q-61 -56.5 -158 -65.5v-62q0 -13 -7 -20.5t-18 -7.5q-12 0 -19 7.5t-7 20.5v61q-82 5 -145 42.5t-90 100.5q-3 8 -3 15q0 24 26 32q3 1 9 1q24 0 35 -24q18 -41 63 -66t105 -28v307q-98 17 -154.5 73t-56.5 139q0 82 58.5 133t152.5 59v48q0 13 7 20.5t19 7.5 q11 0 18 -7.5t7 -20.5v-48q68 -5 119.5 -38.5t78.5 -83.5q7 -11 7 -24q0 -19 -17 -28q-7 -4 -16 -4q-20 0 -33 19q-45 80 -139 88v-275q107 -19 163 -76t56 -146q0 -93 -61 -149.5zM284 437v266q-64 -5 -100 -36t-36 -87q0 -110 136 -143zM441.5 304q-35.5 41 -106.5 57 v-297q65 8 103.5 45t38.5 97q0 57 -35.5 98z" glyph-name="dollar"/>
<glyph horiz-adv-x="859" unicode="%" d="M329 755.5q45 -26.5 71.5 -71.5t26.5 -98t-26.5 -97.5t-71 -71t-97.5 -26.5t-98 26.5t-71.5 71t-26.5 97.5t26.5 98t71.5 71.5t98 26.5q52 0 97 -26.5zM710 782q17 0 28 -11.5t11 -28.5q0 -13 -7 -23l-553 -706q-13 -13 -30 -13q-16 0 -27 11t-11 28q0 14 9 26l549 701 q14 16 31 16zM172.5 689.5q-27.5 -16.5 -44 -44t-16.5 -59.5t16 -59t44 -43.5t60 -16.5t59.5 16.5t43.5 43.5t16 59t-16.5 59.5t-44 44t-58.5 16.5q-32 0 -59.5 -16.5zM735 364q45 -26 71.5 -71t26.5 -98t-26.5 -98t-71.5 -71t-98 -26t-97.5 26.5t-71 71t-26.5 97.5 t26.5 97.5t71 71t97.5 26.5t98 -26zM553 279q-35 -35 -35 -84t35 -84t84 -35q32 0 59.5 16.5t44 44t16.5 58.5t-16.5 58.5t-44 44t-59.5 16.5q-49 0 -84 -35z" glyph-name="percent"/>
<glyph horiz-adv-x="720" unicode="&amp;" d="M680 46q0 -10 -11 -21q-12 -12 -26 -12q-13 0 -25 12l-111 111l-20 -21q-56 -60 -111 -91t-120 -31q-97 0 -154 51t-57 135q0 62 38.5 116.5t122.5 119.5l12 10l-54 54q-69 69 -69 151q0 45 23 81.5t62.5 57.5t88.5 21q50 0 90.5 -22t63.5 -60t23 -85q-1 -55 -31 -99.5 t-91 -92.5l-10 -8l192 -192l85 90q14 15 26 15q10 0 21 -10q13 -11 13 -25q0 -11 -12 -25l-86 -91l112 -112q15 -15 15 -27zM271 466l19 15q86 68 86 143q0 43 -28.5 72.5t-78.5 29.5q-44 0 -74 -28t-30 -67q0 -31 12.5 -57t38.5 -53zM460 183l-199 199l-20 -15 q-64 -51 -93 -96t-29 -92q0 -54 36.5 -86.5t102.5 -32.5q49 0 91 24.5t90 75.5z" glyph-name="ampersand"/>
<glyph horiz-adv-x="156" unicode="&apos;" d="M52.5 770q11.5 11 27.5 11t27.5 -11t11.5 -27l-10 -147q0 -13 -8.5 -21t-20.5 -8t-20.5 8t-8.5 21l-10 147q0 16 11.5 27z" glyph-name="quotesingle"/>
<glyph horiz-adv-x="256" unicode="(" d="M234 771q11 -11 11 -27q0 -11 -6 -22q-110 -221 -110 -448q0 -224 111 -449q6 -12 6 -21q0 -16 -11 -27t-28 -11q-13 0 -21.5 6t-15.5 20q-117 240 -117 483q0 244 117 481q12 26 37 26q16 0 27 -11z" glyph-name="parenleft"/>
<glyph horiz-adv-x="256" unicode=")" d="M22 771q-11 -11 -11 -27q0 -11 6 -22q110 -221 110 -448q0 -224 -111 -449q-6 -12 -6 -21q0 -16 11 -27t28 -11q13 0 21.5 6t15.5 20q117 240 117 483q0 244 -117 481q-12 26 -37 26q-16 0 -27 -11z" glyph-name="parenright"/>
<glyph horiz-adv-x="381" unicode="*" d="M155 743q0 17 11.5 28t27.5 11q17 0 28 -11t11 -28q0 -5 -2 -13l-18 -78l73 45q9 6 19 6q15 0 27 -11t12 -28t-10.5 -27t-27.5 -12l-81 -7l63 -52q18 -15 18 -33q0 -16 -11.5 -27.5t-31.5 -11.5q-21 1 -33 26l-35 78l-36 -77q-9 -27 -38 -27q-17 0 -27.5 11.5t-10.5 27.5 q0 18 14 28l68 57l-81 7q-18 2 -28.5 13t-10.5 26q1 17 12 28t27 11q12 0 25 -9l66 -41l-17 77q-3 6 -3 13z" glyph-name="asterisk"/>
<glyph horiz-adv-x="547" unicode="+" d="M245 614q11 11 27 11q17 0 28 -11t11 -27v-157h157q16 0 27.5 -11.5t11.5 -27.5t-11.5 -27.5t-27.5 -11.5h-157v-157q0 -17 -11 -28t-28 -11q-16 0 -27 11t-11 28v157h-157q-16 0 -27 11t-11 28t11 28t27 11h157v157q0 16 11 27z" glyph-name="plus"/>
<glyph horiz-adv-x="226" unicode="," d="M157.5 78.5q18.5 -23.5 18.5 -65.5q0 -37 -14 -78.5t-36.5 -69t-44.5 -27.5q-21 0 -21 20q0 9 4 17.5t13 19.5q10 15 15 26t5 25q0 16 -6 27t-18 25t-17.5 24t-5.5 25q0 25 16.5 40t41.5 15q31 0 49.5 -23.5z" glyph-name="comma"/>
<glyph horiz-adv-x="391" unicode="-" d="M339 301q11 -11 11 -28q0 -16 -11 -27t-28 -11h-235q-16 0 -27 11t-11 27q0 17 10.5 28t27.5 11h235q17 0 28 -11z" glyph-name="hyphen"/>
<glyph horiz-adv-x="216" unicode="." d="M149 83.5q17 -17.5 17 -41.5t-17 -41t-41 -17t-41 17t-17 41q0 25 17.5 42t40.5 17q24 0 41 -17.5z" glyph-name="period"/>
<glyph horiz-adv-x="469" unicode="/" d="M370.5 777q9.5 6 21.5 6q17 0 27.5 -11.5t10.5 -27.5q0 -8 -3 -16l-314 -784q-8 -22 -36 -22q-16 0 -27 11t-11 27q0 8 3 17l314 783q5 11 14.5 17z" glyph-name="slash"/>
<glyph horiz-adv-x="571" unicode="0" d="M413 735.5q53 -47.5 80.5 -135.5t27.5 -208q0 -184 -62 -288t-174 -104q-74 0 -127 47t-80.5 135t-27.5 210q0 121 27.5 209t80.5 135t127 47q75 0 128 -47.5zM168 619q-40 -86 -40 -227q0 -143 40 -228.5t117 -85.5q78 0 118 86t40 228q0 141 -40.5 227t-117.5 86 t-117 -86z" glyph-name="zero"/>
<glyph horiz-adv-x="378" unicode="1" d="M80 649q-17 0 -28 10.5t-11 27.5q0 29 25 37l154 53q15 5 20 5q16 0 27 -11t11 -28v-704q0 -16 -11 -27.5t-28 -11.5q-16 0 -27.5 11.5t-11.5 27.5v650l-100 -35q-10 -5 -20 -5z" glyph-name="one"/>
<glyph horiz-adv-x="581" unicode="2" d="M522.5 66.5q11.5 -11.5 11.5 -27.5t-11 -27.5t-28 -11.5h-385q-16 0 -27.5 11.5t-11.5 27.5t11 27l303 358q25 27 40 60.5t15 62.5q0 70 -41.5 115t-105.5 45q-42 0 -76 -21.5t-54 -58t-20 -80.5q0 -16 -11.5 -27t-27.5 -11t-27.5 11t-11.5 27q0 66 30 120t82 84.5 t116 30.5q65 0 115.5 -30t79 -83.5t28.5 -121.5q0 -81 -78 -172l-256 -297h313q16 0 27.5 -11.5z" glyph-name="two"/>
<glyph horiz-adv-x="585" unicode="3" d="M406.5 760.5q47.5 -25.5 74.5 -70t27 -99.5q0 -50 -34.5 -95.5t-84.5 -67.5q74 -22 112.5 -77.5t38.5 -127.5q0 -64 -31.5 -116.5t-86.5 -82t-122 -29.5q-69 0 -125 30.5t-88 84t-32 119.5q0 17 10.5 29t26.5 12t26.5 -12t10.5 -29q0 -45 22 -82t60.5 -58.5t85.5 -21.5 q77 0 121.5 43t44.5 113q0 48 -21 85t-57 57.5t-81 20.5q-16 0 -27 11t-11 28t11 27.5t27 10.5q34 0 64 17.5t48 47t18 63.5q0 53 -36.5 88.5t-95.5 35.5q-63 0 -104 -35t-41 -88q0 -17 -10.5 -28.5t-26.5 -11.5t-26.5 11.5t-10.5 27.5q0 55 28.5 99.5t78.5 70t112 25.5 q57 0 104.5 -25.5z" glyph-name="three"/>
<glyph horiz-adv-x="647" unicode="4" d="M604 221q0 -13 -11.5 -23.5t-26.5 -10.5h-79v-148q0 -16 -11 -27.5t-28 -11.5q-16 0 -26.5 11t-10.5 28v148h-358q-17 0 -28 11.5t-11 26.5q0 12 8 23l396 518q11 16 32 16q16 0 26.5 -11.5t10.5 -28.5v-485h79q38 0 38 -36zM411 257v382l-293 -382h293z" glyph-name="four"/>
<glyph horiz-adv-x="627" unicode="5" d="M447.5 474.5q58.5 -33.5 91.5 -91.5t33 -129t-33 -129.5t-91.5 -91.5t-129.5 -33t-129 33t-91 91.5t-33 129.5q0 17 11 28t27 11q17 0 28.5 -11.5t11.5 -27.5q0 -49 23 -89.5t63 -63.5t89 -23t89.5 23t63.5 63.5t23 89.5t-23 89.5t-63.5 63.5t-89.5 23h-175 q-16 0 -27.5 11.5t-11.5 27.5v274q0 17 11.5 28t27.5 11h351q16 0 27.5 -11.5t11.5 -27.5t-11.5 -27.5t-27.5 -11.5h-313v-196h137q71 0 129.5 -33.5z" glyph-name="five"/>
<glyph horiz-adv-x="579" unicode="6" d="M419.5 439.5q53.5 -30.5 84 -84t30.5 -120.5t-30.5 -120.5t-83.5 -84t-120 -30.5t-120.5 30.5t-84 84t-30.5 120.5q0 65 30 120l-1 -1l247 406q14 21 35 21q17 0 28.5 -11.5t11.5 -26.5q0 -10 -6 -21l-157 -256q20 4 47 4q66 0 119.5 -30.5zM380.5 93q36.5 21 57.5 58.5 t21 83.5t-21 83.5t-57.5 59t-81.5 21.5t-81.5 -21.5t-57.5 -59t-21 -83.5t21 -83.5t57.5 -58.5t81.5 -21t81.5 21z" glyph-name="six"/>
<glyph horiz-adv-x="568" unicode="7" d="M57.5 715.5q-11.5 11.5 -11.5 27.5t11.5 27.5t28.5 11.5h407q16 0 27 -11.5t11 -27.5q0 -7 -6 -21l-327 -700q-5 -10 -14.5 -16t-20.5 -6q-16 0 -27.5 11.5t-11.5 27.5q0 9 8 25l298 640h-344q-17 0 -28.5 11.5z" glyph-name="seven"/>
<glyph horiz-adv-x="593" unicode="8" d="M498 356.5q32 -52.5 32 -118.5q0 -68 -30.5 -123t-84 -87t-118.5 -32q-66 0 -119.5 31.5t-84 86t-30.5 121.5t32.5 120.5t87.5 82.5q-37 26 -58 66.5t-21 89.5q0 53 25.5 96.5t70 68t99.5 24.5q54 0 97.5 -24.5t68 -67t24.5 -95.5q0 -49 -21 -90.5t-57 -67.5 q55 -29 87 -81.5zM212 505.5q34 -35.5 85 -35.5t84.5 36.5t33.5 90.5q0 49 -34 82t-84 33q-51 0 -85 -34t-34 -85q0 -52 34 -87.5zM431.5 318q-20.5 36 -56 57t-78.5 21q-44 0 -80 -21.5t-56 -58.5t-20 -83t20.5 -84.5t56 -60.5t79.5 -22t79.5 22.5t55.5 62t20 86.5 q0 45 -20.5 81z" glyph-name="eight"/>
<glyph horiz-adv-x="579" unicode="9" d="M159.5 342.5q-53.5 30.5 -84 84t-30.5 120.5t30.5 120.5t83.5 84t120 30.5t120.5 -30.5t84 -84t30.5 -120.5q0 -65 -30 -120l1 1l-247 -406q-14 -21 -35 -21q-17 0 -28.5 11.5t-11.5 26.5q0 10 6 21l157 256q-20 -4 -47 -4q-66 0 -119.5 30.5zM198.5 689 q-36.5 -21 -57.5 -58.5t-21 -83.5t21 -83.5t57.5 -59t81.5 -21.5t81.5 21.5t57.5 59t21 83.5t-21 83.5t-57.5 58.5t-81.5 21t-81.5 -21z" glyph-name="nine"/>
<glyph horiz-adv-x="195" unicode=":" d="M130.5 523.5q16.5 -17.5 16.5 -41.5t-16.5 -41t-40.5 -17t-41.5 17t-17.5 41q0 25 17 42t42 17q24 0 40.5 -17.5zM133 83.5q17 -17.5 17 -41.5t-17 -41t-41 -17t-41 17t-17 41q0 25 17.5 42t40.5 17q24 0 41 -17.5z" glyph-name="colon"/>
<glyph horiz-adv-x="200" unicode=";" d="M157.5 78.5q18.5 -23.5 18.5 -65.5q0 -37 -14 -78.5t-36.5 -69t-44.5 -27.5q-21 0 -21 20q0 9 4 17.5t13 19.5q10 15 15 26t5 25q0 16 -6 27t-18 25t-17.5 24t-5.5 25q0 25 16.5 40t41.5 15q31 0 49.5 -23.5zM132.5 523.5q16.5 -17.5 16.5 -41.5t-16.5 -41t-40.5 -17 t-41.5 17t-17.5 41q0 25 17 42t42 17q24 0 40.5 -17.5z" glyph-name="semicolon"/>
<glyph horiz-adv-x="547" unicode="&lt;" d="M507 117q0 -17 -12 -28t-28 -11q-10 0 -18 5l-389 234q-21 12 -21 35q0 19 21 35l389 234q10 5 20 5q16 0 27 -10t11 -26q0 -23 -19 -35l-339 -202l339 -202q19 -13 19 -34z" glyph-name="less"/>
<glyph horiz-adv-x="508" unicode="=" d="M457 496.5q11 -11.5 11 -27.5t-11 -27.5t-27 -11.5h-353q-16 0 -27 11t-11 28t11 28t27 11h353q16 0 27 -11.5zM457 261.5q11 -11.5 11 -27.5t-11 -27t-27 -11l-353 -1q-17 1 -27.5 12t-10.5 27q0 17 10.5 28t27.5 11h353q16 0 27 -11.5z" glyph-name="equal"/>
<glyph horiz-adv-x="547" unicode="&gt;" d="M507 352q0 -23 -21 -35l-389 -234q-7 -5 -18 -5q-16 0 -28 11t-12 28q0 21 19 34l339 202l-339 202q-19 12 -19 35q0 16 11 26t27 10q10 0 20 -5l389 -234q21 -16 21 -35z" glyph-name="greater"/>
<glyph horiz-adv-x="547" unicode="?" d="M395.5 768.5q52.5 -28.5 82 -78.5t29.5 -113q0 -49 -16 -85.5t-40.5 -64.5t-69.5 -69l-18 -16q-28 -25 -39.5 -58.5t-11.5 -66.5q0 -17 -11 -28.5t-28 -11.5t-28 11.5t-11 28.5q0 41 20 87t54 78l25 23q34 32 53 53.5t31.5 52t12.5 70.5q0 39 -19 71.5t-54 51.5t-80 19 q-74 0 -117.5 -44.5t-43.5 -115.5q0 -17 -10.5 -27.5t-27.5 -10.5t-28 10.5t-11 27.5q0 68 30 121t84 83t124 30q66 0 118.5 -28.5zM314.5 100q17.5 -17 17.5 -42q0 -24 -17.5 -41t-41.5 -17q-25 0 -41.5 17t-16.5 41q0 25 17 42t41 17t41.5 -17z" glyph-name="question"/>
<glyph horiz-adv-x="1094" unicode="@" d="M832.5 55q11.5 -16 32.5 -16q32 0 57.5 30t40 83.5t14.5 121.5q0 124 -55 221.5t-152.5 152.5t-221.5 55t-222 -55t-152.5 -152.5t-54.5 -221.5q0 -125 54.5 -222.5t152 -152t222.5 -54.5q44 0 93.5 10t82.5 26q14 7 28 7q15 0 23 -10t8 -28q0 -21 -30.5 -40t-84.5 -31 t-120 -12q-147 0 -262.5 64.5t-180 180t-64.5 262.5t64.5 262.5t180 180t262.5 64.5t262.5 -64.5t180 -180t64.5 -262.5q0 -91 -25 -162t-69 -111t-101 -40q-51 0 -83.5 30.5t-32.5 79.5v38q-29 -47 -85.5 -78t-114.5 -31q-78 0 -139 35t-95.5 97.5t-34.5 141.5t35 141.5 t97 97.5t141 35t141 -35t97 -97.5t35 -141.5v-172q0 -31 11.5 -47zM447 444q-44 -25 -69 -69.5t-25 -100.5q0 -57 24.5 -101.5t69 -69t101.5 -24.5q56 0 100.5 25t69.5 69t25 101q0 56 -25 100.5t-69.5 69.5t-100.5 25q-57 0 -101 -25z" glyph-name="at"/>
<glyph horiz-adv-x="703" unicode="A" d="M690 39q0 -16 -11.5 -27.5t-27.5 -11.5q-26 0 -37 24l-67 162h-387l-67 -162q-8 -24 -36 -24q-17 0 -27.5 11.5t-10.5 27.5q0 10 3 17l294 698q11 27 38 27t37 -27l295 -699q4 -7 4 -16zM520 253l-166 401l-166 -401h332z" glyph-name="A"/>
<glyph horiz-adv-x="695" unicode="B" d="M490.5 755.5q48.5 -25.5 77 -70.5t28.5 -101q0 -53 -28.5 -95t-76.5 -65q69 -19 109 -68.5t40 -124.5q0 -67 -31 -119.5t-85.5 -82t-124.5 -29.5h-255q-20 0 -32 10.5t-12 28.5v703q0 17 11 28t28 11h243q60 0 108.5 -25.5zM481.5 489.5q38.5 34.5 38.5 94.5q0 58 -38 90 t-100 32h-204v-251h204q61 0 99.5 34.5zM517.5 117.5q45.5 42.5 45.5 113.5q0 68 -45.5 108.5t-118.5 40.5h-221v-305h221q73 0 118.5 42.5z" glyph-name="B"/>
<glyph horiz-adv-x="771" unicode="C" d="M582 770q59 -21 114 -67q11 -8 11 -23q0 -8 -4 -14.5t-11 -9.5q-2 -7 -9 -11t-15 -4q-15 0 -25 9q-39 35 -85 51t-107 16q-84 0 -156 -44.5t-114.5 -119.5t-42.5 -162q0 -89 42 -164t114 -119t157 -44q109 0 197 70q11 8 22 8q15 0 26 -10.5t11 -27.5q0 -16 -11 -28 q-94 -86 -245 -86q-106 0 -195 54t-141.5 146t-52.5 201q0 108 52 200t141 146t196 54q72 0 131 -21z" glyph-name="C"/>
<glyph horiz-adv-x="770" unicode="D" d="M521 731q89 -50 138.5 -138.5t49.5 -201.5t-49.5 -202t-138.5 -139t-202 -50h-180q-17 0 -28 11t-11 28v703q0 17 11 28t28 11h180q113 0 202 -50zM481 111.5q71 41.5 111 114.5t40 165t-40 165t-111 114t-162 41h-141v-641h141q91 0 162 41.5z" glyph-name="D"/>
<glyph horiz-adv-x="692" unicode="E" d="M636 64.5q11 -10.5 11 -26.5t-11 -27t-28 -11h-469q-16 0 -27.5 11.5t-11.5 27.5v703q0 17 11.5 28t27.5 11h469q17 0 28 -11t11 -27t-11 -26.5t-28 -10.5h-430v-276h313q17 0 28 -11t11 -27t-11.5 -27t-27.5 -11h-313v-279h430q17 0 28 -10.5z" glyph-name="E"/>
<glyph horiz-adv-x="625" unicode="F" d="M457 419.5q11 -10.5 11 -27.5q0 -16 -11 -27t-28 -11h-313v-315q0 -16 -11 -27.5t-28 -11.5q-16 0 -27.5 11.5t-11.5 27.5v703q0 17 11.5 28t27.5 11h469q17 0 28 -11t11 -27t-11 -26.5t-28 -10.5h-430v-276h313q17 0 28 -10.5z" glyph-name="F"/>
<glyph horiz-adv-x="771" unicode="G" d="M696 379.5q11 -10.5 11 -27.5v-248q0 -17 -11 -28q-93 -86 -245 -86q-106 0 -195 54t-141.5 146t-52.5 201q0 108 52 200t141 146t196 54q72 0 131 -21t114 -67q11 -8 11 -23q0 -8 -4 -14.5t-11 -9.5q-2 -7 -9 -11.5t-15 -4.5q-14 0 -25 10q-39 35 -85 51t-107 16 q-84 0 -156 -44.5t-114.5 -119.5t-42.5 -162q0 -89 42 -164t114 -119t157 -44q97 0 180 57v200h-156q-17 0 -28 10t-11 25t11 24.5t28 9.5h193q17 0 28 -10.5z" glyph-name="G"/>
<glyph horiz-adv-x="844" unicode="H" d="M677.5 770q11.5 11 27.5 11q17 0 28 -11t11 -28v-703q0 -16 -11 -27.5t-28 -11.5q-16 0 -27.5 11.5t-11.5 27.5v321h-488v-321q0 -16 -11 -27.5t-28 -11.5q-16 0 -27.5 11.5t-11.5 27.5v703q0 17 11.5 28t27.5 11q17 0 28 -11t11 -28v-312h488v312q0 17 11.5 28z" glyph-name="H"/>
<glyph horiz-adv-x="278" unicode="I" d="M111.5 770q11.5 11 27.5 11q17 0 28 -11t11 -28v-703q0 -16 -11 -27.5t-28 -11.5q-16 0 -27.5 11.5t-11.5 27.5v703q0 17 11.5 28z" glyph-name="I"/>
<glyph horiz-adv-x="614" unicode="J" d="M483 105.5q-31 -53.5 -84.5 -84.5t-118.5 -31q-66 0 -119.5 31t-84.5 84.5t-31 118.5q0 17 11 28t28 11t28 -11t11 -28q0 -45 21 -81.5t57 -57.5t79 -21t79 21.5t56.5 58t20.5 80.5v518q0 17 11.5 28t27.5 11q17 0 28 -11t11 -28v-518q0 -65 -31 -118.5z" glyph-name="J"/>
<glyph horiz-adv-x="655" unicode="K" d="M167 11.5q-11 -11.5 -28 -11.5q-16 0 -27.5 11.5t-11.5 27.5v703q0 16 11.5 27.5t27.5 11.5q17 0 28 -11t11 -28v-340l365 365q14 14 31 14t26.5 -10t9.5 -25q0 -18 -13 -32l-274 -274l277 -378q8 -13 8 -24q0 -15 -10.5 -26.5t-25.5 -11.5q-22 0 -33 17l-272 368 l-89 -90v-256q0 -16 -11 -27.5z" glyph-name="K"/>
<glyph horiz-adv-x="633" unicode="L" d="M597 63.5q11 -10.5 11 -26.5t-11 -26.5t-28 -10.5h-430q-16 0 -27.5 11.5t-11.5 27.5v703q0 16 11.5 27.5t27.5 11.5q17 0 28 -11t11 -28v-668h391q17 0 28 -10.5z" glyph-name="L"/>
<glyph horiz-adv-x="981" unicode="M" d="M870 770q11 -11 11 -28v-703q0 -16 -11 -27.5t-27 -11.5q-17 0 -28.5 11.5t-11.5 27.5v566l-278 -568q-12 -19 -34 -19q-25 0 -36 24l-277 554v-557q0 -16 -11 -27.5t-28 -11.5q-16 0 -27.5 11.5t-11.5 27.5v703q0 17 11.5 28t27.5 11q23 0 35 -20l320 -636l314 636 q12 20 35 20q16 0 27 -11z" glyph-name="M"/>
<glyph horiz-adv-x="825" unicode="N" d="M658.5 770q11.5 11 27.5 11q17 0 28 -11t11 -28v-703q0 -16 -11 -27.5t-28 -11.5q-20 0 -29 13l-479 628v-602q0 -16 -11 -27.5t-28 -11.5t-28 11t-11 28v703q0 17 11 28t28 11q18 0 30 -14l478 -628v603q0 17 11.5 28z" glyph-name="N"/>
<glyph horiz-adv-x="921" unicode="O" d="M665.5 739q91.5 -52 143 -143t51.5 -205t-51.5 -205.5t-143 -143.5t-204.5 -52q-114 0 -205 52t-142.5 143.5t-51.5 205.5t51.5 205t142.5 143t205 52q113 0 204.5 -52zM295.5 674q-73.5 -43 -115.5 -117.5t-42 -165.5q0 -92 42 -166.5t115.5 -117.5t165.5 -43 q91 0 164.5 43t115.5 117.5t42 166.5q0 91 -42 165.5t-115.5 117.5t-164.5 43q-92 0 -165.5 -43z" glyph-name="O"/>
<glyph horiz-adv-x="612" unicode="P" d="M167 11q-11 -11 -28 -11t-28 11t-11 28v703q0 17 11 28t28 11h200q73 0 130.5 -32.5t89.5 -90t32 -131.5q0 -73 -32 -130t-89.5 -89t-130.5 -32h-161v-237q0 -17 -11 -28zM430 373.5q40 22.5 62.5 62.5t22.5 91q0 52 -22.5 92.5t-62.5 63.5t-91 23h-161v-355h161 q51 0 91 22.5z" glyph-name="P"/>
<glyph horiz-adv-x="921" unicode="Q" d="M809 65q11 -11 11 -26q0 -16 -11 -27q-12 -12 -27 -12t-27 12l-53 53q-50 -36 -111.5 -55.5t-129.5 -19.5q-114 0 -205 52t-142.5 143.5t-51.5 205.5t51.5 205t142.5 143t205 52q113 0 204.5 -52t143 -143t51.5 -205q0 -81 -26.5 -151.5t-75.5 -123.5zM646 120l-107 107 q-12 12 -12 27t12 27q11 11 26 11q16 0 27 -11l111 -111q38 44 59 101t21 120q0 91 -42 165.5t-115.5 117.5t-164.5 43q-92 0 -165.5 -43t-115.5 -117.5t-42 -165.5q0 -92 42 -166.5t115.5 -117.5t165.5 -43q106 0 185 56z" glyph-name="Q"/>
<glyph horiz-adv-x="618" unicode="R" d="M597 33q0 -15 -11 -24t-29 -9q-12 0 -20 5t-14 15l-180 286h-17h-148v-267q0 -17 -11 -28t-28 -11t-28 11t-11 28v703q0 17 11 28t28 11h187q73 0 130 -30.5t89.5 -85.5t32.5 -125q0 -77 -41.5 -135t-112.5 -83l164 -262q9 -15 9 -27zM326 381q50 0 90.5 20.5t63 56.5 t22.5 82q0 48 -22.5 86t-62.5 59t-91 21h-148v-325h148z" glyph-name="R"/>
<glyph horiz-adv-x="662" unicode="S" d="M479 756q60 -35 94 -91q7 -11 7 -24q0 -19 -18 -30q-8 -4 -18 -4q-11 0 -20.5 5.5t-15.5 15.5q-56 88 -169 89q-81 0 -128 -34t-47 -97q0 -117 189 -142q124 -18 185 -76t61 -153q0 -70 -34 -121t-93 -77.5t-132 -26.5q-95 0 -168.5 40.5t-105.5 109.5q-4 7 -4 16 q0 14 10.5 23.5t28.5 9.5q12 0 22.5 -6.5t15.5 -18.5q23 -45 76.5 -72.5t124.5 -27.5q82 0 132 39.5t50 110.5q0 63 -46.5 106t-139.5 55q-116 14 -182.5 72.5t-66.5 143.5q0 60 32.5 105.5t90 70t130.5 24.5q79 0 139 -35z" glyph-name="S"/>
<glyph horiz-adv-x="655" unicode="T" d="M630 771q10 -10 10 -26q0 -15 -10 -25t-26 -10h-238v-671q0 -16 -11 -27.5t-28 -11.5q-16 0 -27.5 11.5t-11.5 27.5v671h-237q-16 0 -26 10t-10 25q0 16 10 26t26 10h553q16 0 26 -10z" glyph-name="T"/>
<glyph horiz-adv-x="819" unicode="U" d="M111 770q11 11 28 11t28 -11t11 -28v-484q0 -58 29.5 -103.5t82.5 -71t121 -25.5q67 0 119 25.5t81.5 71t29.5 103.5v484q0 17 11 28t28 11t28 -11t11 -28v-484q0 -79 -39.5 -141.5t-109.5 -97.5t-159 -35q-90 0 -161 35t-110.5 97.5t-39.5 141.5v484q0 17 11 28z" glyph-name="U"/>
<glyph horiz-adv-x="716" unicode="V" d="M687.5 771q9.5 -10 9.5 -25q0 -10 -5 -22l-298 -699q-11 -25 -35 -25q-13 0 -21.5 5.5t-14.5 19.5l-297 695q-6 15 -6 26q0 16 10.5 25.5t27.5 9.5q26 0 36 -25l265 -634l264 632q6 15 15 21t24 6q16 0 25.5 -10z" glyph-name="V"/>
<glyph horiz-adv-x="938" unicode="W" d="M907 770.5q9 -10.5 9 -26.5q0 -8 -3 -19l-204 -692q-5 -16 -15.5 -24.5t-24.5 -8.5t-24.5 9t-14.5 23l-162 591l-161 -590q-5 -15 -15.5 -24t-24.5 -9t-24.5 9t-14.5 23l-205 693q-3 11 -3 18q0 17 10 27.5t26 10.5q28 0 38 -30l173 -603l164 586q3 11 13.5 18t23.5 7 t23 -7t14 -19l165 -586l174 608q8 26 38 26q16 0 25 -10.5z" glyph-name="W"/>
<glyph horiz-adv-x="707" unicode="X" d="M662 38q0 -16 -10 -27t-27 -11q-20 0 -30 14l-239 331l-244 -333q-10 -12 -28 -12q-17 0 -27 10.5t-10 25.5t9 27l247 336l-231 321q-8 13 -8 24q0 15 10 26t26 11q20 0 30 -14l227 -314l230 314q11 14 30 14q16 0 26 -11.5t10 -26.5q0 -13 -7 -23l-236 -320l243 -337 q9 -12 9 -25z" glyph-name="X"/>
<glyph horiz-adv-x="648" unicode="Y" d="M633.5 770.5q9.5 -10.5 9.5 -25.5q0 -14 -7 -25l-273 -431v-250q0 -16 -11 -27.5t-28 -11.5q-16 0 -27.5 11.5t-11.5 27.5v250l-272 431q-8 13 -8 25q0 15 11 25.5t27 10.5q11 0 18.5 -4.5t14.5 -14.5l249 -401l248 399q8 11 16 16t20 5q15 0 24.5 -10.5z" glyph-name="Y"/>
<glyph horiz-adv-x="724" unicode="Z" d="M64 720q-10 9 -10 25q0 15 11 25.5t28 10.5h542q18 0 28.5 -12t10.5 -28q0 -13 -7 -21l-519 -650h487q17 0 28 -9.5t11 -25.5q0 -15 -11 -25t-28 -10h-547q-17 0 -28 12t-11 27t8 24l517 648h-482q-18 0 -28 9z" glyph-name="Z"/>
<glyph horiz-adv-x="302" unicode="[" d="M290.5 -167q11.5 -12 11.5 -28t-11.5 -27.5t-28.5 -11.5h-158q-16 0 -27.5 11t-11.5 28v938q0 17 11.5 28t27.5 11h158q17 0 28.5 -11.5t11.5 -27.5t-11.5 -28t-28.5 -12h-119v-858h119q17 0 28.5 -12z" glyph-name="bracketleft"/>
<glyph horiz-adv-x="469" unicode="\" d="M39 742q0 17 11.5 28.5t28.5 11.5q12 0 21.5 -6t13.5 -17l315 -784q4 -7 4 -16q0 -17 -11 -28t-28 -11q-11 0 -21 6t-15 17l-316 783q-3 8 -3 16z" glyph-name="backslash"/>
<glyph horiz-adv-x="302" unicode="]" d="M11.5 -167q-11.5 -12 -11.5 -28t11.5 -27.5t28.5 -11.5h158q16 0 27.5 11t11.5 28v938q0 17 -11.5 28t-27.5 11h-158q-17 0 -28.5 -11.5t-11.5 -27.5t11.5 -28t28.5 -12h119v-858h-119q-17 0 -28.5 -12z" glyph-name="bracketright"/>
<glyph horiz-adv-x="469" unicode="^" d="M82 470q-17 0 -28.5 11t-11.5 27q0 10 6 20l158 238q12 16 32 16q19 0 31 -16l158 -238q6 -9 6 -20q0 -16 -11.5 -27t-27.5 -11q-20 0 -31 14l-125 188l-126 -188q-11 -14 -30 -14z" glyph-name="asciicircum"/>
<glyph horiz-adv-x="469" unicode="_" d="M507 -11.5q11 -11.5 11 -27.5t-11 -27.5t-27 -11.5h-479q-17 0 -28 11t-11 28q0 16 11 27.5t28 11.5h479q16 0 27 -11.5z" glyph-name="underscore"/>
<glyph horiz-adv-x="273" unicode="`" d="M43 742q0 17 11 28.5t27 11.5t28 -12l112 -113q10 -9 10 -25q0 -17 -11 -28.5t-28 -11.5q-15 0 -26 11l-113 112q-10 10 -10 27z" glyph-name="grave"/>
<glyph unicode="a" d="M480.5 515.5q63.5 -36.5 100 -100.5t36.5 -142v-235q0 -16 -11 -27t-28 -11t-28 10.5t-11 27.5v60q-35 -48 -89 -75.5t-119 -27.5q-76 0 -137.5 36.5t-97 100t-35.5 141.5t36.5 142t100 100.5t141.5 36.5t141.5 -36.5zM442 92q46 27 72.5 74.5t26.5 106.5t-26.5 106.5 t-72.5 75t-103 27.5t-103.5 -27.5t-73 -75t-26.5 -106.5t26.5 -106.5t73 -74.5t103.5 -27t103 27z" glyph-name="a"/>
<glyph horiz-adv-x="707" unicode="b" d="M90 509v-235q0 -78 36.5 -142t100 -100.5t141.5 -36.5t141.5 36.5t100 100.5t36.5 142t-35.5 141.5t-97 100t-137.5 36.5q-65 0 -119 -27.5t-89 -75.5v293q0 17 -11 28t-28 11t-27.5 -11t-10.5 -28v-224q-1 -3 -1 -9zM265 92.5q-46 27.5 -72.5 75t-26.5 106.5q0 17 1 25 q1 2 1 5q10 78 65.5 128t134.5 50q57 0 103.5 -27t73 -74.5t26.5 -106.5t-26.5 -106.5t-73 -75t-103.5 -27.5t-103 27.5z" glyph-name="b"/>
<glyph horiz-adv-x="596" unicode="c" d="M527 456q8 -9 8 -21q0 -16 -17 -28q-9 -6 -19 -6q-15 0 -29 15q-30 33 -66 49.5t-80 16.5q-55 0 -98 -26.5t-66.5 -74.5t-23.5 -108q0 -59 25 -106.5t70 -74.5t103 -27q80 0 129 43q13 11 27 11q12 0 22 -8q14 -12 14 -27q0 -13 -10 -22q-72 -67 -182 -67 q-78 0 -140 36.5t-97.5 100t-35.5 141.5q0 80 34 143.5t94 99.5t135 36q125 0 203 -96z" glyph-name="c"/>
<glyph horiz-adv-x="707" unicode="d" d="M617 509v-235q0 -78 -36.5 -142t-100 -100.5t-141.5 -36.5t-141.5 36.5t-100 100.5t-36.5 142t35.5 141.5t97 100t137.5 36.5q65 0 119 -27.5t89 -75.5v293q0 17 11 28t28 11t27.5 -11t10.5 -28v-224q1 -3 1 -9zM442 92.5q46 27.5 72.5 75t26.5 106.5q0 17 -1 25 q-1 2 -1 5q-10 78 -65.5 128t-134.5 50q-57 0 -103.5 -27t-73 -74.5t-26.5 -106.5t26.5 -106.5t73 -75t103.5 -27.5t103 27.5z" glyph-name="d"/>
<glyph horiz-adv-x="614" unicode="e" d="M454 517.5q57 -34.5 88.5 -95.5t31.5 -139q0 -16 -10 -25.5t-26 -9.5h-404q8 -82 64 -133t140 -51q36 0 72.5 12.5t58.5 31.5q13 10 27 10q11 0 22 -8q13 -12 13 -27q0 -13 -11 -23q-33 -28 -84 -46.5t-98 -18.5q-80 0 -143 35.5t-98.5 99t-35.5 143.5q0 81 33.5 144.5 t93 99t135.5 35.5q74 0 131 -34.5zM197 436q-50 -47 -61 -124h366q-8 77 -56 124t-123 47q-76 0 -126 -47z" glyph-name="e"/>
<glyph horiz-adv-x="366" unicode="f" d="M231.5 667q-33.5 -44 -33.5 -117v-23h120q16 0 25.5 -9.5t9.5 -24.5q0 -14 -9.5 -23.5t-25.5 -9.5h-120v-421q0 -18 -10.5 -28.5t-29.5 -10.5q-16 0 -26.5 10.5t-10.5 28.5v421h-64q-16 0 -25.5 9.5t-9.5 23.5q0 15 9.5 24.5t25.5 9.5h64v19q0 107 55 171t155 64 q17 0 28 -10t11 -25t-11 -25t-28 -10q-66 0 -99.5 -44z" glyph-name="f"/>
<glyph unicode="g" d="M482 516.5q63 -35.5 99 -99t36 -144.5v-204q0 -80 -35.5 -145t-98.5 -102.5t-142 -37.5q-77 0 -137 29t-101 81q-9 10 -9 23q0 15 14 26q10 7 22 7q9 0 18 -4.5t14 -11.5q30 -38 76 -59t104 -21q56 0 101.5 27.5t71.5 77t26 113.5v45q-30 -57 -85 -89.5t-125 -32.5 q-78 0 -139.5 35.5t-96 99t-34.5 143.5q0 81 36 144.5t99.5 99t142.5 35.5q80 0 143 -35.5zM443 91.5q46 26.5 72 74t26 107.5t-26 107.5t-72 74.5t-104 27q-59 0 -105 -27t-72 -74.5t-26 -107.5t26 -107.5t72 -74t105 -26.5q58 0 104 26.5z" glyph-name="g"/>
<glyph unicode="h" d="M476.5 523q56.5 -30 88.5 -87.5t32 -137.5v-260q0 -16 -11 -27t-27 -11q-17 0 -28 11t-11 27v260q0 89 -49.5 135.5t-129.5 46.5q-49 0 -88.5 -19t-62.5 -52.5t-23 -74.5v-296q0 -17 -10.5 -27.5t-27.5 -10.5t-28 10.5t-11 27.5v704q0 17 11 28t28 11t27.5 -11t10.5 -28 v-268q33 37 80 58t102 21q71 0 127.5 -30z" glyph-name="h"/>
<glyph horiz-adv-x="289" unicode="i" d="M117 536q11 11 28 11t27.5 -11t10.5 -28v-469q0 -17 -10.5 -28t-27.5 -11t-28 11t-11 28v469q0 17 11 28zM183 745q16 -15 16 -39q0 -23 -16 -39t-39 -16t-38.5 16t-15.5 39q0 24 16 39t39 15q22 0 38 -15z" glyph-name="i"/>
<glyph horiz-adv-x="285" unicode="j" d="M149 -121q-30 -53 -83 -83t-121 -30q-17 0 -28 11t-11 28t11 28t28 11q69 0 113 44t44 112v508q0 17 10.5 28t27.5 11t28 -11t11 -28v-508q0 -68 -30 -121zM178 745q16 -15 16 -39q0 -23 -16 -39t-39 -16t-38.5 16t-15.5 39q0 24 16 39t39 15q22 0 38 -15z" glyph-name="j"/>
<glyph horiz-adv-x="572" unicode="k" d="M512 32q0 -15 -14 -27q-12 -9 -24 -9q-16 0 -27 14l-206 253l-75 -68v-157q0 -17 -10.5 -27.5t-27.5 -10.5t-27.5 10.5t-10.5 27.5v705q0 17 10.5 27.5t27.5 10.5t27.5 -10.5t10.5 -27.5v-455l282 255q11 10 24 10q15 0 25 -12q11 -13 11 -24q0 -14 -13 -25l-200 -181 l208 -256q9 -10 9 -23z" glyph-name="k"/>
<glyph horiz-adv-x="282" unicode="l" d="M81 770.5q11 10.5 27 10.5q17 0 27.5 -10.5t10.5 -27.5v-570q0 -43 17.5 -70t44.5 -27h25q15 0 24 -10.5t9 -27.5t-12.5 -27.5t-32.5 -10.5h-13q-61 0 -99.5 48.5t-38.5 124.5v570q0 17 11 27.5z" glyph-name="l"/>
<glyph horiz-adv-x="947" unicode="m" d="M770.5 525q45.5 -28 71 -79.5t25.5 -119.5v-288q0 -17 -10.5 -27.5t-27.5 -10.5t-28 10.5t-11 27.5v288q0 71 -36.5 112.5t-95.5 41.5q-63 0 -102 -42t-38 -110v-2v-288q0 -17 -10.5 -27.5t-27.5 -10.5t-28 10.5t-11 27.5v288q0 71 -36.5 112.5t-95.5 41.5 q-62 0 -102 -41t-40 -105v-296q0 -17 -10.5 -27.5t-27.5 -10.5t-28 10.5t-11 27.5v470q0 17 11 28t28 11t27.5 -11t10.5 -28v-22q28 32 66.5 49.5t83.5 17.5q55 0 99 -25t70 -70q29 45 75.5 70t104.5 25q59 0 104.5 -28z" glyph-name="m"/>
<glyph unicode="n" d="M476.5 523q56.5 -30 88.5 -87.5t32 -137.5v-260q0 -16 -11 -27t-27 -11q-17 0 -28 11t-11 27v260q0 89 -49.5 135.5t-129.5 46.5q-49 0 -88.5 -19t-62.5 -52.5t-23 -74.5v-296q0 -17 -10.5 -27.5t-27.5 -10.5t-28 10.5t-11 27.5v470q0 17 11 28t28 11t27.5 -11t10.5 -28 v-34q33 37 80 58t102 21q71 0 127.5 -30z" glyph-name="n"/>
<glyph unicode="o" d="M481 516q63 -36 99.5 -100t36.5 -143t-36 -142.5t-99.5 -99.5t-142.5 -36t-142.5 36t-99.5 99.5t-36 142.5t36 143t99.5 100t142.5 36t142 -36zM235.5 455q-46.5 -27 -73 -74.5t-26.5 -107.5q0 -59 26.5 -106.5t73 -74.5t103.5 -27q58 0 104 27t72 74.5t26 106.5 q0 60 -26 107.5t-72 74.5t-104 27q-57 0 -103.5 -27z" glyph-name="o"/>
<glyph horiz-adv-x="707" unicode="p" d="M509.5 515.5q63.5 -36.5 100 -100.5t36.5 -142t-35.5 -141.5t-97 -100t-137.5 -36.5q-65 0 -119 27.5t-89 75.5v-293q0 -17 -11 -28t-28 -11t-27.5 11t-10.5 28v224q-1 3 -1 9v235q0 78 36.5 142t100 100.5t141.5 36.5t141.5 -36.5zM471.5 92q46.5 27 73 74.5t26.5 106.5 t-26.5 106.5t-73 75t-103.5 27.5t-103 -27.5t-72.5 -75t-26.5 -106.5q0 -17 1 -25q1 -2 1 -5q10 -78 65.5 -128t134.5 -50q57 0 103.5 27z" glyph-name="p"/>
<glyph horiz-adv-x="707" unicode="q" d="M617 38q0 -6 -1 -9v-224q0 -17 -10.5 -28t-27.5 -11t-28 11t-11 28v293q-35 -48 -89 -75.5t-119 -27.5q-76 0 -137.5 36.5t-97 100t-35.5 141.5t36.5 142t100 100.5t141.5 36.5t141.5 -36.5t100 -100.5t36.5 -142v-235zM473.5 115q55.5 50 65.5 128q0 3 1 5q1 8 1 25 q0 59 -26.5 106.5t-72.5 75t-103 27.5t-103.5 -27.5t-73 -75t-26.5 -106.5t26.5 -106.5t73 -74.5t103.5 -27q79 0 134.5 50z" glyph-name="q"/>
<glyph horiz-adv-x="458" unicode="r" d="M403.5 542q24.5 -11 24.5 -31q0 -6 -1 -9q-4 -14 -12.5 -19t-23.5 -5q-9 0 -31 2q-8 1 -24 1q-75 0 -122.5 -40t-47.5 -104v-299q0 -18 -10 -28t-28 -10t-28 10t-10 28v471q0 18 10 28t28 10t28 -10t10 -28v-44q29 42 74 65t97 23q42 0 66.5 -11z" glyph-name="r"/>
<glyph horiz-adv-x="539" unicode="s" d="M394 529.5q49 -22.5 79 -62.5q8 -13 8 -23q0 -17 -16 -27q-7 -5 -19 -5q-21 0 -35 15q-49 56 -134 56q-55 0 -88 -22.5t-33 -56.5q0 -36 31 -57.5t110 -34.5q107 -18 153 -58.5t46 -100.5q0 -46 -27.5 -82t-76.5 -56t-111 -20t-119 21t-92 59q-10 12 -10 23q0 17 16 30 q12 9 25 9q17 0 29 -14q24 -28 63.5 -43t87.5 -15q70 0 105 24t36 63q0 36 -35 60t-111 36q-98 16 -146.5 55.5t-48.5 95.5q0 73 56.5 113t141.5 40q66 0 115 -22.5z" glyph-name="s"/>
<glyph horiz-adv-x="402" unicode="t" d="M357 66q10 -11 10 -28q0 -16 -12 -27t-30 -11h-21q-53 0 -95 25.5t-65.5 69t-23.5 98.5v267h-65q-16 0 -25.5 9.5t-9.5 23.5q0 15 9.5 24.5t25.5 9.5h65v155q0 17 10.5 28t27.5 11t28 -11t11 -28v-155h113q16 0 25.5 -9.5t9.5 -24.5q0 -14 -9.5 -23.5t-25.5 -9.5h-113 v-267q0 -51 30 -83.5t77 -32.5h27q16 0 26 -11z" glyph-name="t"/>
<glyph unicode="u" d="M576 536.5q11 -10.5 11 -27.5v-470q0 -17 -11 -28t-28 -11t-27.5 11t-10.5 28v34q-33 -37 -80 -58t-102 -21q-71 0 -127.5 30t-88.5 87.5t-32 137.5v260q0 16 11 27t27 11q17 0 28 -11t11 -27v-260q0 -89 49.5 -135.5t129.5 -46.5q49 0 88.5 19t62.5 52.5t23 74.5v296 q0 17 10.5 27.5t27.5 10.5t28 -10.5z" glyph-name="u"/>
<glyph horiz-adv-x="553" unicode="v" d="M537 512q0 -6 -3 -14l-219 -472q-13 -26 -38 -26q-24 0 -36 26l-222 471q-3 6 -3 14q0 21 22 32q7 4 16 4q10 0 18.5 -5t12.5 -15l192 -416l190 416q4 10 13 15.5t20 5.5q9 0 16 -4q21 -10 21 -32z" glyph-name="v"/>
<glyph horiz-adv-x="740" unicode="w" d="M714 538q9 -9 9 -24q0 -12 -4 -21l-156 -468q-4 -11 -13.5 -18t-22.5 -7t-23.5 7t-13.5 18l-120 398l-120 -398q-4 -12 -14 -18.5t-22 -6.5q-13 0 -22.5 7t-14.5 18l-156 468q-3 12 -3 21q0 33 32 33q28 0 38 -29l128 -390l118 389q4 14 13.5 22t24.5 8t24.5 -8t13.5 -22 l115 -387l127 388q10 29 37 29q16 0 25 -9z" glyph-name="w"/>
<glyph horiz-adv-x="548" unicode="x" d="M506 33q0 -14 -10.5 -23.5t-23.5 -9.5q-12 0 -20 4t-15 14l-164 209l-170 -215q-9 -12 -27 -12q-16 0 -25.5 10t-9.5 24q0 16 10 27l173 216l-164 208q-10 11 -10 27q0 15 9 25t26 10t29 -12l161 -207l159 201q14 18 33 18q16 0 25.5 -10t9.5 -24q0 -15 -11 -29 l-166 -206l170 -218q11 -14 11 -27z" glyph-name="x"/>
<glyph horiz-adv-x="548" unicode="y" d="M541 515q0 -9 -4 -18l-324 -712q-9 -23 -29 -23q-10 0 -18 4q-23 9 -23 30q0 9 4 18l99 219v1l-223 462q-4 8 -4 18q0 21 22 30q8 4 18 4q21 0 30 -21l195 -411l186 410q10 22 30 22q9 0 18 -4q23 -9 23 -29z" glyph-name="y"/>
<glyph horiz-adv-x="549" unicode="z" d="M506 35q0 -35 -35 -35h-371q-35 0 -35 35q0 17 7 25l328 417h-304q-35 0 -35 35t35 35h371q35 0 35 -35q0 -16 -8 -26l-325 -416h302q35 0 35 -35z" glyph-name="z"/>
<glyph horiz-adv-x="378" unicode="{" d="M327 -156q16 0 27 -11t11 -28t-11 -28t-27 -11q-156 0 -156 156v234q0 79 -79 79q-17 0 -28 11t-11 27q0 17 11 28t28 11q79 0 79 79v234q0 157 156 157q16 0 27 -11.5t11 -28.5q0 -16 -10.5 -27t-27.5 -11q-79 0 -79 -79v-234q0 -73 -39 -118q39 -44 39 -117v-234 q0 -78 79 -78z" glyph-name="braceleft"/>
<glyph horiz-adv-x="391" unicode="|" d="M167.5 771q11.5 11 27.5 11q17 0 28 -11t11 -28v-938q0 -17 -11 -28t-28 -11q-16 0 -27.5 11t-11.5 28v938q0 17 11.5 28z" glyph-name="bar"/>
<glyph horiz-adv-x="378" unicode="}" d="M51 -156q-16 0 -27 -11t-11 -28t11 -28t27 -11q156 0 156 156v234q0 79 79 79q17 0 28 11t11 27q0 17 -11 28t-28 11q-79 0 -79 79v234q0 157 -156 157q-16 0 -27 -11.5t-11 -28.5q0 -16 10.5 -27t27.5 -11q79 0 79 -79v-234q0 -73 39 -118q-39 -44 -39 -117v-234 q0 -78 -79 -78z" glyph-name="braceright"/>
<glyph horiz-adv-x="469" unicode="~" d="M220 422q20 -8 46 -24q23 -14 34.5 -19t26.5 -5q31 0 49 20q15 17 31 17q8 0 16 -5q18 -9 18 -28q0 -11 -8 -22q-40 -49 -105 -49q-28 0 -50 9t-47 24q-21 13 -34 18t-26 5q-37 0 -66 -35q-6 -9 -15 -14t-18 -5t-17 5q-7 4 -11.5 11.5t-4.5 15.5q0 12 7 22q25 32 58 49.5 t69 17.5q27 0 47 -8z" glyph-name="asciitilde"/>
<glyph horiz-adv-x="293" unicode=" " glyph-name="uni00A0"/>
<glyph horiz-adv-x="266" unicode="¡" d="M130 -222.5q11 -11.5 28 -11.5t28 11.5t11 28.5v526q0 16 -12 27.5t-27 11.5q-16 0 -27.5 -11.5t-11.5 -27.5v-526q0 -17 11 -28.5zM199 448.5q17 17.5 17 41.5t-17 41t-41 17t-41 -16.5t-17 -41.5t17 -42t41 -17t41 17.5z" glyph-name="exclamdown"/>
<glyph horiz-adv-x="596" unicode="¢" d="M526 84q0 -13 -10 -22q-72 -67 -182 -67q-48 0 -92 15l-31 -84q-9 -23 -30 -23q-12 0 -19.5 7.5t-7.5 19.5q0 7 3 16l33 88q-60 36 -94.5 99t-34.5 140q0 80 34 143.5t94 99.5t135 36q31 0 59 -6l31 83q7 21 29 21q12 0 19.5 -8t7.5 -19q0 -4 -2 -12l-31 -83 q51 -24 90 -72q8 -9 8 -21q0 -16 -17 -28q-9 -6 -19 -6q-15 0 -29 15q-27 30 -58 46l-145 -386q33 -11 67 -11q80 0 129 43q13 11 27 11q12 0 22 -8q14 -12 14 -27zM157 174.5q21 -44.5 59 -72.5l142 377q-16 3 -34 3q-55 0 -98 -26.5t-66.5 -74.5t-23.5 -108 q0 -54 21 -98.5z" glyph-name="cent"/>
<glyph horiz-adv-x="508" unicode="£" d="M446 137q10 19 33 19q16 0 27.5 -11.5t11.5 -27.5q0 -11 -4 -18l-38 -76q-5 -11 -15 -17t-21 -6h-322q-18 0 -28.5 11t-10.5 28q0 5 2 15q56 131 56 258h-59q-16 0 -27.5 11.5t-11.5 28.5q0 16 11 27t28 11h52q-30 82 -40.5 119.5t-10.5 76.5q0 53 26.5 98t71.5 71.5 t98 26.5q96 0 157 -70q23 -25 23 -42q0 -16 -11 -27.5t-28 -11.5t-26 11q-26 32 -52.5 48t-61.5 16q-51 0 -85 -35.5t-34 -86.5q0 -32 9 -64t31 -96l12 -34h145q17 0 27.5 -10.5t10.5 -27.5t-11 -28.5t-27 -11.5h-139q0 -115 -41 -234h241z" glyph-name="sterling"/>
<glyph horiz-adv-x="501" unicode="¤" d="M411 572q19 0 32 -12.5t13 -31.5q0 -20 -13 -33l-39 -36q25 -45 25 -93q0 -47 -24 -89l38 -40q13 -14 13 -32q0 -19 -12.5 -32t-31.5 -13q-17 0 -31 12l-38 41q-43 -25 -92 -25q-45 0 -89 23l-42 -39q-12 -12 -31 -12t-31.5 13t-12.5 32q0 18 13 31l40 38q-26 44 -26 91 q0 46 25 91l-39 40q-13 13 -13 32t12.5 31.5t31.5 12.5q18 0 31 -11l39 -42q43 25 92 25q48 0 89 -23l40 39q17 12 31 12zM183 434.5q-29 -29.5 -29 -68.5t28.5 -68t68.5 -29q39 0 67.5 28.5t28.5 68.5t-28.5 69t-67.5 29t-68 -29.5z" glyph-name="currency"/>
<glyph horiz-adv-x="648" unicode="¥" d="M633.5 770.5q9.5 -10.5 9.5 -25.5q0 -14 -7 -25l-229 -362h77q17 0 27 -9t10 -25t-10 -25t-27 -9h-120l-1 -1v-59h121q17 0 27 -9t10 -25t-10 -25t-27 -9h-121v-123q0 -16 -11 -27.5t-28 -11.5q-16 0 -27.5 11.5t-11.5 27.5v123h-120q-17 0 -27 9t-10 25t10 25t27 9h120 v59l-1 1h-119q-17 0 -27 9t-10 25t10 25t27 9h76l-228 362q-8 13 -8 25q0 15 11 25.5t27 10.5q11 0 18.5 -4.5t14.5 -14.5l249 -401l248 399q8 11 16 16t20 5q15 0 24.5 -10.5z" glyph-name="yen"/>
<glyph horiz-adv-x="234" unicode="¦" d="M89 848.5q11 11.5 28 11.5t28 -11.5t11 -28.5v-351q0 -16 -11 -27.5t-28 -11.5q-16 0 -27.5 11.5t-11.5 27.5v351q0 17 11 28.5zM89 179q11 11 28 11t28 -11t11 -27v-347q0 -17 -11 -28t-28 -11q-16 0 -27.5 11t-11.5 28v347q0 16 11 27z" glyph-name="brokenbar"/>
<glyph horiz-adv-x="469" unicode="§" d="M334.5 754.5q45.5 -26.5 72 -71t26.5 -97.5q0 -17 -11 -28t-28 -11q-16 0 -27.5 11.5t-11.5 27.5q0 31 -16.5 58t-44 43t-58.5 16t-58.5 -15.5t-44 -42.5t-16.5 -59q0 -49 35 -83t84 -34q53 0 98.5 -26.5t72 -71.5t26.5 -98q0 -46 -20 -86.5t-59 -69.5q39 -29 59 -69 t20 -86q0 -53 -26.5 -98t-72 -71.5t-98.5 -26.5q-54 0 -99 26.5t-71.5 71.5t-26.5 98q0 16 11.5 27.5t28.5 11.5q16 0 27 -11.5t11 -27.5q0 -32 16.5 -59t44 -43t58.5 -16t58.5 16t44 43t16.5 59q0 31 -16.5 57.5t-44 42.5t-58.5 16q-53 0 -98.5 26t-72 71t-26.5 98 q0 95 79 157q-79 60 -79 156q0 53 26.5 97.5t71.5 71t99 26.5q53 0 98.5 -26.5zM177 375q-27 -16 -43.5 -43t-16.5 -59q0 -48 35.5 -82t83.5 -34t83.5 34t35.5 82q0 32 -16.5 59t-44 43t-58.5 16q-32 0 -59 -16z" glyph-name="section"/>
<glyph horiz-adv-x="469" unicode="¨" d="M179 716q16 -16 16 -39t-16 -39t-39 -16t-39 16t-16 39t16 39t39 16t39 -16zM388 716q16 -16 16 -39t-16 -39t-39 -16t-39 16t-16 39t16 39t39 16t39 -16z" glyph-name="dieresis"/>
<glyph horiz-adv-x="859" unicode="©" d="M631 729q90 -53 143 -142.5t53 -194.5q0 -108 -52.5 -198t-142 -142t-196.5 -52t-197 52t-142 142t-52 198q0 105 52.5 195t142 142.5t196.5 52.5q105 0 195 -53zM273 673q-75 -44 -119 -118.5t-44 -162.5t44 -162.5t118.5 -118.5t162.5 -44t163 44t119 118.5t44 162.5 t-44 162.5t-119 118.5t-163 44q-87 0 -162 -44zM612 557q8 -9 8 -22q0 -17 -17 -28q-10 -7 -19 -7q-17 0 -29 15q-49 56 -123 56q-71 0 -114.5 -49.5t-43.5 -128.5q0 -52 21.5 -92.5t59.5 -63.5t86 -23q66 0 108 37q14 11 28 11q11 0 21 -8q14 -12 14 -28q0 -14 -10 -23 q-64 -61 -161 -61q-69 0 -124 32.5t-86.5 90t-31.5 128.5t30 128t83 89.5t120 32.5q112 0 180 -86z" glyph-name="copyright"/>
<glyph horiz-adv-x="475" unicode="ª" d="M336 764.5q45 -25.5 70.5 -70.5t25.5 -100v-159q0 -16 -10.5 -27.5t-25.5 -11.5q-17 0 -27 11t-9 28l1 19q-50 -56 -125 -56q-55 0 -100 26t-70.5 70.5t-25.5 99.5t25.5 100t70.5 70.5t100 25.5t100 -25.5zM323 507.5q35 34.5 35 86.5q0 53 -34.5 87.5t-87.5 34.5 q-52 0 -87 -34.5t-35 -87.5q0 -52 35 -86.5t87 -34.5t87 34.5z" glyph-name="ordfeminine"/>
<glyph horiz-adv-x="469" unicode="«" d="M234 39q0 -16 -11 -27.5t-28 -11.5q-24 0 -36 24l-114 228q-6 12 -6 21q0 7 5 19l115 230q11 24 36 24q17 0 28 -11t11 -27q0 -9 -3 -17l-109 -218l109 -218q3 -6 3 -16zM433 39q0 -16 -11 -27.5t-28 -11.5q-24 0 -36 24l-115 228q-5 13 -5 21q0 5 4 19l116 230 q11 24 36 24q17 0 28 -11t11 -27q0 -7 -4 -17l-109 -218l109 -218q4 -8 4 -16z" glyph-name="guillemotleft"/>
<glyph horiz-adv-x="547" unicode="¬" d="M50.5 480.5q-11.5 11.5 -11.5 27.5q0 17 11.5 28t27.5 11h390q17 0 28 -11t11 -28v-156q0 -16 -11 -27.5t-28 -11.5q-16 0 -27 11.5t-11 27.5v117h-352q-16 0 -27.5 11.5z" glyph-name="logicalnot"/>
<glyph horiz-adv-x="391" unicode="­" d="M339 301q11 -11 11 -28q0 -16 -11 -27t-28 -11h-235q-16 0 -27 11t-11 27q0 17 10.5 28t27.5 11h235q17 0 28 -11z" glyph-name="uni00AD"/>
<glyph horiz-adv-x="859" unicode="®" d="M631 729q90 -53 143 -142.5t53 -194.5q0 -108 -52.5 -198t-142 -142t-196.5 -52t-197 52t-142 142t-52 198q0 105 52.5 195t142 142.5t196.5 52.5q105 0 195 -53zM598 111q75 44 119 118.5t44 162.5t-44 162.5t-119 118.5t-163 44q-87 0 -162 -44t-119 -118.5t-44 -162.5 t44 -162.5t118.5 -118.5t162.5 -44t163 44zM603 206q8 -14 8 -24q0 -12 -9 -19.5t-24 -7.5q-19 0 -29 16l-106 170h-7h-81v-153q0 -14 -9 -23.5t-24 -9.5t-24.5 9.5t-9.5 23.5v424q0 14 10 23.5t25 9.5h113q73 0 119.5 -42.5t46.5 -109.5q0 -46 -25 -82t-67 -55zM355 402h83 q44 0 71 24t27 67t-27 67.5t-71 24.5h-83v-183z" glyph-name="registered"/>
<glyph horiz-adv-x="547" unicode="¯" d="M430.5 700q11.5 -10 11.5 -26t-11.5 -26t-27.5 -10h-259q-17 0 -28 10t-11 26t11 26t28 10h259q16 0 27.5 -10z" glyph-name="macron"/>
<glyph horiz-adv-x="469" unicode="°" d="M332 755.5q45 -26.5 71.5 -71.5t26.5 -97q0 -53 -26.5 -98t-71.5 -71.5t-98 -26.5t-97.5 26.5t-71 71.5t-26.5 98q0 52 26 97t71 71.5t98 26.5t98 -26.5zM176 688q-27 -16 -43 -43t-16 -58q0 -49 34.5 -83.5t82.5 -34.5t83 34.5t35 83.5q0 31 -16.5 58t-43.5 43t-58 16 t-58 -16z" glyph-name="degree"/>
<glyph horiz-adv-x="547" unicode="±" d="M245.5 614q11.5 11 27.5 11q17 0 28 -11t11 -27v-157h156q16 0 27.5 -11.5t11.5 -27.5t-11 -27.5t-28 -11.5h-156v-157q0 -17 -11 -28t-28 -11q-16 0 -27.5 11.5t-11.5 27.5v157h-156q-16 0 -27.5 11.5t-11.5 27.5q0 17 11.5 28t27.5 11h156v157q0 16 11.5 27zM496 67 q11 -11 11 -28t-10.5 -28t-27.5 -11h-391q-17 0 -28 11t-11 28t11.5 28t27.5 11h391q16 0 27 -11z" glyph-name="plusminus"/>
<glyph horiz-adv-x="365" unicode="²" d="M309.5 443q10.5 -8 10.5 -24t-10.5 -24.5t-26.5 -8.5h-195q-16 0 -26.5 10.5t-10.5 26.5q0 17 9 26l159 172q22 23 22 50q0 25 -18 42t-45 17q-33 0 -53.5 -19t-20.5 -47q0 -17 -7.5 -27t-23.5 -10q-14 0 -22 10.5t-8 26.5q0 55 38 91.5t98 36.5q57 0 92.5 -34.5 t35.5 -87.5q0 -28 -14 -49.5t-40 -48.5l-114 -121h144q16 0 26.5 -8z" glyph-name="uni00B2"/>
<glyph horiz-adv-x="366" unicode="³" d="M267.5 760.5q35.5 -31.5 35.5 -80.5q0 -27 -16.5 -51t-41.5 -35q33 -11 51.5 -36.5t18.5 -60.5q0 -52 -37.5 -85.5t-94.5 -33.5q-60 0 -99 35t-39 88q0 17 9.5 27t25.5 10q15 0 22.5 -10t7.5 -27q0 -26 20.5 -43.5t51.5 -17.5q28 0 47 16t19 42q0 28 -16 46t-40 18 q-19 0 -29.5 8.5t-10.5 22.5q0 33 35 33q25 0 38.5 13t13.5 38q0 23 -16.5 37t-43.5 14q-30 0 -47.5 -13.5t-21.5 -35.5q-2 -12 -10 -21t-18 -9q-14 0 -24 9.5t-10 23.5q0 46 37.5 78t92.5 32q54 0 89.5 -31.5z" glyph-name="uni00B3"/>
<glyph horiz-adv-x="273" unicode="´" d="M195 781q17 0 28 -11.5t11 -28.5q0 -16 -11 -26l-112 -113q-10 -10 -26 -10t-27.5 11.5t-11.5 27.5t9 26l113 113q11 11 27 11z" glyph-name="acute"/>
<glyph unicode="µ" d="M576 536.5q11 -10.5 11 -27.5v-470q0 -17 -11 -28t-28 -11t-27.5 11t-10.5 28v40q-30 -40 -75.5 -62.5t-98.5 -22.5q-58 0 -104 25t-75 70v-284q0 -17 -11 -28t-28 -11t-27.5 11t-10.5 28v704q0 17 10.5 27.5t27.5 10.5t28 -10.5t11 -27.5v-260q0 -52 23 -93.5t63.5 -65 t92.5 -23.5q76 0 125 41t49 105v296q0 17 10.5 27.5t27.5 10.5t28 -10.5z" glyph-name="uni00B5"/>
<glyph horiz-adv-x="571" unicode="¶" d="M307 11.5q-11 -11.5 -28 -11.5q-16 0 -27.5 11.5t-11.5 27.5v352q-56 1 -100.5 27.5t-69.5 70.5t-25 97q0 54 26 99t70.5 71t98.5 26h247q17 0 28 -11.5t11 -28.5q0 -14 -11 -24.5t-28 -12.5v-666q0 -16 -11 -27.5t-28 -11.5q-16 0 -27.5 11.5t-11.5 27.5v665h-91v-665 q0 -16 -11 -27.5z" glyph-name="paragraph"/>
<glyph horiz-adv-x="195" unicode="·" d="M136.5 412.5q16.5 -17.5 16.5 -41.5t-16.5 -41t-40.5 -17t-41.5 17t-17.5 41q0 25 17 42t42 17q24 0 40.5 -17.5z" glyph-name="periodcentered"/>
<glyph horiz-adv-x="313" unicode="¸" d="M267.5 -72q21.5 -23 21.5 -57q0 -28 -18 -52t-49 -38t-69 -14q-52 0 -87 22t-35 52q0 15 11 26t26 11q19 0 35 -21q16 -24 51 -24q23 0 38 10t15 28q0 19 -12 30t-40 18q-19 4 -29 11.5t-10 20.5q0 8 5 23l16 41q10 30 44 30q15 0 24 -8.5t9 -21.5q0 -7 -3 -15l-15 -36 q50 -13 71.5 -36z" glyph-name="cedilla"/>
<glyph horiz-adv-x="274" unicode="¹" d="M52 675q-32 0 -32 30q0 22 27 32l109 38q15 5 24 5q30 0 30 -39v-316q0 -39 -34 -39q-17 0 -25.5 10.5t-8.5 28.5v276l-62 -21q-17 -5 -28 -5z" glyph-name="uni00B9"/>
<glyph horiz-adv-x="472" unicode="º" d="M336 764.5q45 -25.5 70.5 -70.5t25.5 -100t-25.5 -99.5t-70.5 -70.5t-100 -26t-100 26t-70.5 70.5t-25.5 99.5t25.5 100t70.5 70.5t100 25.5t100 -25.5zM149 681.5q-35 -34.5 -35 -87.5q0 -52 35 -86.5t87 -34.5t87 34.5t35 86.5q0 53 -34.5 87.5t-87.5 34.5 q-52 0 -87 -34.5z" glyph-name="ordmasculine"/>
<glyph horiz-adv-x="469" unicode="»" d="M39 508q0 16 11 27t28 11q23 0 36 -24l115 -230q5 -12 5 -19q0 -9 -6 -21l-114 -228q-12 -24 -36 -24q-16 0 -27 11t-11 28q0 9 3 16l108 218l-108 218q-4 10 -4 17zM239.5 498q-1.5 5 -1.5 10q0 16 11 27t28 11q23 0 36 -24l115 -230q5 -12 5 -19q0 -5 -6 -21l-114 -228 q-13 -24 -36 -24q-16 0 -27.5 11.5t-11.5 27.5q0 9 3 16l109 218l-109 218q0 2 -1.5 7z" glyph-name="guillemotright"/>
<glyph horiz-adv-x="764" unicode="¼" d="M52 675q-32 0 -32 30q0 22 27 32l109 38q15 5 24 5q30 0 30 -39v-316q0 -39 -34 -39q-17 0 -25.5 10.5t-8.5 28.5v276l-62 -21q-17 -5 -28 -5zM616 787q14 0 23 -8.5t9 -21.5q0 -11 -9 -25l-469 -712q-13 -20 -31 -20q-13 0 -21.5 8.5t-8.5 20.5q0 10 6 20l469 719 q13 19 32 19zM403.5 94.5q-10.5 9.5 -10.5 23.5q0 15 12 31l181 234q15 18 35 18q15 0 25.5 -9t10.5 -24v-223h35q14 0 22.5 -8t8.5 -22q0 -15 -8.5 -22.5t-22.5 -7.5h-35v-57q0 -32 -34 -32q-15 0 -24 9t-9 23v57h-160q-16 0 -26.5 9.5zM474 145h117l1 156z" glyph-name="onequarter"/>
<glyph horiz-adv-x="812" unicode="½" d="M52 675q-32 0 -32 30q0 22 27 32l109 38q15 5 24 5q30 0 30 -39v-316q0 -39 -34 -39q-17 0 -25.5 10.5t-8.5 28.5v276l-62 -21q-17 -5 -28 -5zM671 787q14 0 23 -8.5t9 -21.5q0 -11 -9 -25l-469 -712q-13 -20 -31 -20q-13 0 -21.5 8.5t-8.5 20.5q0 10 6 20l469 719 q13 19 32 19zM767.5 57q10.5 -8 10.5 -24t-10.5 -24.5t-26.5 -8.5h-195q-16 0 -26.5 10.5t-10.5 26.5q0 17 9 26l159 172q22 23 22 50q0 25 -18 42t-45 17q-33 0 -53.5 -19t-20.5 -47q0 -17 -7.5 -27t-23.5 -10q-14 0 -22 10.5t-8 26.5q0 55 38 91.5t98 36.5 q57 0 92.5 -34.5t35.5 -87.5q0 -28 -14 -49.5t-40 -48.5l-114 -121h144q16 0 26.5 -8z" glyph-name="onehalf"/>
<glyph horiz-adv-x="837" unicode="¾" d="M267.5 760.5q35.5 -31.5 35.5 -80.5q0 -27 -16.5 -51t-41.5 -35q33 -11 51.5 -36.5t18.5 -60.5q0 -52 -37.5 -85.5t-94.5 -33.5q-60 0 -99 35t-39 88q0 17 9.5 27t25.5 10q15 0 22.5 -10t7.5 -27q0 -26 20.5 -43.5t51.5 -17.5q28 0 47 16t19 42q0 28 -16 46t-40 18 q-19 0 -29.5 8.5t-10.5 22.5q0 33 35 33q25 0 38.5 13t13.5 38q0 23 -16.5 37t-43.5 14q-30 0 -47.5 -13.5t-21.5 -35.5q-2 -12 -10 -21t-18 -9q-14 0 -24 9.5t-10 23.5q0 46 37.5 78t92.5 32q54 0 89.5 -31.5zM663 787q14 0 23 -8.5t9 -21.5q0 -11 -9 -25l-469 -712 q-13 -20 -31 -20q-13 0 -21.5 8.5t-8.5 20.5q0 10 6 20l469 719q13 19 32 19zM471.5 94.5q-10.5 9.5 -10.5 23.5q0 15 12 31l181 234q15 18 35 18q15 0 25.5 -9t10.5 -24v-223h35q14 0 22.5 -8t8.5 -22q0 -15 -8.5 -22.5t-22.5 -7.5h-35v-57q0 -32 -34 -32q-15 0 -24 9 t-9 23v57h-160q-16 0 -26.5 9.5zM542 145h117l1 156z" glyph-name="threequarters"/>
<glyph horiz-adv-x="547" unicode="¿" d="M148.5 -147.5q-52.5 28.5 -82 78.5t-29.5 113q0 49 16 85.5t40.5 64.5t69.5 69l18 16q28 25 39.5 58.5t11.5 66.5q0 17 11 28.5t28 11.5t28 -11.5t11 -28.5q0 -41 -20 -87t-54 -78l-25 -23q-34 -32 -53 -53.5t-31.5 -52t-12.5 -70.5q0 -39 19 -71.5t54 -51.5t80 -19 q74 0 117.5 44.5t43.5 115.5q0 17 10.5 27.5t27.5 10.5t28 -10.5t11 -27.5q0 -68 -30 -121t-84 -83t-124 -30q-66 0 -118.5 28.5zM229.5 521q-17.5 17 -17.5 42q0 24 17.5 41t41.5 17q25 0 41.5 -17t16.5 -41q0 -25 -17 -42t-41 -17t-41.5 17z" glyph-name="questiondown"/>
<glyph horiz-adv-x="703" unicode="À" d="M690 39q0 -16 -11.5 -27.5t-27.5 -11.5q-26 0 -37 24l-67 162h-387l-67 -162q-8 -24 -36 -24q-17 0 -27.5 11.5t-10.5 27.5q0 10 3 17l294 698q11 27 38 27t37 -27l295 -699q4 -7 4 -16zM520 253l-166 401l-166 -401h332zM202 1020q0 17 11 28.5t27 11.5t28 -12l112 -113 q10 -9 10 -25q0 -17 -11 -28.5t-28 -11.5q-15 0 -26 11l-113 112q-10 10 -10 27z" glyph-name="Agrave"/>
<glyph horiz-adv-x="703" unicode="Á" d="M690 39q0 -16 -11.5 -27.5t-27.5 -11.5q-26 0 -37 24l-67 162h-387l-67 -162q-8 -24 -36 -24q-17 0 -27.5 11.5t-10.5 27.5q0 10 3 17l294 698q11 27 38 27t37 -27l295 -699q4 -7 4 -16zM520 253l-166 401l-166 -401h332zM455 1053q17 0 28 -11.5t11 -28.5q0 -16 -11 -26 l-112 -113q-10 -10 -26 -10q-17 0 -28 11.5t-11 27.5t9 26l113 113q11 11 27 11z" glyph-name="Aacute"/>
<glyph horiz-adv-x="703" unicode="Â" d="M690 39q0 -16 -11.5 -27.5t-27.5 -11.5q-26 0 -37 24l-67 162h-387l-67 -162q-8 -24 -36 -24q-17 0 -27.5 11.5t-10.5 27.5q0 10 3 17l294 698q11 27 38 27t37 -27l295 -699q4 -7 4 -16zM520 253l-166 401l-166 -401h332zM236 868q-17 0 -28.5 9.5t-11.5 25.5q0 21 19 34 l118 78q8 5 19 5q10 0 20 -5l117 -78q19 -13 19 -34q0 -15 -11 -25t-28 -10q-11 0 -24 8l-93 64l-93 -64q-11 -8 -23 -8z" glyph-name="Acircumflex"/>
<glyph horiz-adv-x="703" unicode="Ã" d="M690 39q0 -16 -11.5 -27.5t-27.5 -11.5q-26 0 -37 24l-67 162h-387l-67 -162q-8 -24 -36 -24q-17 0 -27.5 11.5t-10.5 27.5q0 10 3 17l294 698q11 27 38 27t37 -27l295 -699q4 -7 4 -16zM520 253l-166 401l-166 -401h332zM330.5 994.5q15.5 -9.5 37.5 -28.5 q16 -14 24.5 -19t16.5 -5q7 0 13 5.5t12 18.5q5 11 15 17.5t20 6.5q4 0 10 -2q24 -10 24 -30q0 -9 -4 -16q-17 -35 -37 -50.5t-46 -15.5q-41 0 -78 37q-16 15 -25.5 21t-19.5 6q-11 0 -19.5 -9t-18.5 -28q-13 -21 -32 -21q-15 0 -24 9t-9 22q0 9 4 17q19 39 42 56.5t53 17.5 q26 0 41.5 -9.5z" glyph-name="Atilde"/>
<glyph horiz-adv-x="703" unicode="Ä" d="M690 39q0 -16 -11.5 -27.5t-27.5 -11.5q-26 0 -37 24l-67 162h-387l-67 -162q-8 -24 -36 -24q-17 0 -27.5 11.5t-10.5 27.5q0 10 3 17l294 698q11 27 38 27t37 -27l295 -699q4 -7 4 -16zM520 253l-166 401l-166 -401h332zM287 975q16 -16 16 -39t-16 -39t-39 -16t-39 16 t-16 39t16 39t39 16t39 -16zM496 975q16 -16 16 -39t-16 -39t-39 -16t-39 16t-16 39t16 39t39 16t39 -16z" glyph-name="Adieresis"/>
<glyph horiz-adv-x="703" unicode="Å" d="M690 39q0 -16 -11.5 -27.5t-27.5 -11.5q-26 0 -37 24l-67 162h-387l-67 -162q-8 -24 -36 -24q-17 0 -27.5 11.5t-10.5 27.5q0 10 3 17l294 698q11 27 38 27t37 -27l295 -699q4 -7 4 -16zM520 253l-166 401l-166 -401h332zM422 995q28 -28 28 -70t-28 -70t-70 -28 q-41 0 -69.5 28t-28.5 70t28.5 70t69.5 28q42 0 70 -28zM315 962.5q-15 -15.5 -15 -37.5t15 -37.5t37 -15.5q23 0 38 15.5t15 37.5q0 23 -15 38t-38 15q-22 0 -37 -15.5z" glyph-name="Aring"/>
<glyph horiz-adv-x="960" unicode="Æ" d="M904 64.5q11 -10.5 11 -26.5t-11 -27t-27 -11h-394q-16 0 -27.5 11.5t-11.5 27.5v147h-253l-96 -162q-12 -24 -36 -24q-17 0 -28.5 11.5t-11.5 26.5q0 8 5 18l419 695q9 15 21.5 22.5t31.5 7.5h381q16 0 27 -11t11 -27t-11 -26.5t-27 -10.5h-355v-276h238 q17 0 27.5 -10.5t10.5 -27.5q0 -16 -11 -27t-27 -11h-238v-279h355q16 0 27 -10.5zM444 253v358l-212 -358h212z" glyph-name="AE"/>
<glyph horiz-adv-x="771" unicode="Ç" d="M582 770q59 -21 114 -67q11 -8 11 -23q0 -8 -4 -14.5t-11 -9.5q-2 -7 -9 -11t-15 -4q-15 0 -25 9q-39 35 -85 51t-107 16q-84 0 -156 -44.5t-114.5 -119.5t-42.5 -162q0 -89 42 -164t114 -119t157 -44q109 0 197 70q11 8 22 8q15 0 26 -10.5t11 -27.5q0 -16 -11 -28 q-94 -86 -245 -86q-106 0 -195 54t-141.5 146t-52.5 201q0 108 52 200t141 146t196 54q72 0 131 -21zM552.5 -72q21.5 -23 21.5 -57q0 -28 -18 -52t-49 -38t-69 -14q-52 0 -87 22t-35 52q0 15 11 26t26 11q19 0 35 -21q16 -24 51 -24q23 0 38 10t15 28q0 19 -12 30t-40 18 q-19 4 -29 11.5t-10 20.5q0 8 5 23l16 41q10 30 44 30q15 0 24 -8.5t9 -21.5q0 -7 -3 -15l-15 -36q50 -13 71.5 -36z" glyph-name="Ccedilla"/>
<glyph horiz-adv-x="692" unicode="È" d="M636 64.5q11 -10.5 11 -26.5t-11 -27t-28 -11h-469q-16 0 -27.5 11.5t-11.5 27.5v703q0 17 11.5 28t27.5 11h469q17 0 28 -11t11 -27t-11 -26.5t-28 -10.5h-430v-276h313q17 0 28 -11t11 -27t-11.5 -27t-27.5 -11h-313v-279h430q17 0 28 -10.5zM231 1020q0 17 11 28.5 t27 11.5t28 -12l112 -113q10 -9 10 -25q0 -17 -11 -28.5t-28 -11.5q-15 0 -26 11l-113 112q-10 10 -10 27z" glyph-name="Egrave"/>
<glyph horiz-adv-x="692" unicode="É" d="M636 64.5q11 -10.5 11 -26.5t-11 -27t-28 -11h-469q-16 0 -27.5 11.5t-11.5 27.5v703q0 17 11.5 28t27.5 11h469q17 0 28 -11t11 -27t-11 -26.5t-28 -10.5h-430v-276h313q17 0 28 -11t11 -27t-11.5 -27t-27.5 -11h-313v-279h430q17 0 28 -10.5zM484 1053q17 0 28 -11.5 t11 -28.5q0 -16 -11 -26l-112 -113q-10 -10 -26 -10q-17 0 -28 11.5t-11 27.5t9 26l113 113q11 11 27 11z" glyph-name="Eacute"/>
<glyph horiz-adv-x="692" unicode="Ê" d="M636 64.5q11 -10.5 11 -26.5t-11 -27t-28 -11h-469q-16 0 -27.5 11.5t-11.5 27.5v703q0 17 11.5 28t27.5 11h469q17 0 28 -11t11 -27t-11 -26.5t-28 -10.5h-430v-276h313q17 0 28 -11t11 -27t-11.5 -27t-27.5 -11h-313v-279h430q17 0 28 -10.5zM265 868q-17 0 -28.5 9.5 t-11.5 25.5q0 21 19 34l118 78q8 5 19 5q10 0 20 -5l117 -78q19 -13 19 -34q0 -15 -11 -25t-28 -10q-11 0 -24 8l-93 64l-93 -64q-11 -8 -23 -8z" glyph-name="Ecircumflex"/>
<glyph horiz-adv-x="692" unicode="Ë" d="M636 64.5q11 -10.5 11 -26.5t-11 -27t-28 -11h-469q-16 0 -27.5 11.5t-11.5 27.5v703q0 17 11.5 28t27.5 11h469q17 0 28 -11t11 -27t-11 -26.5t-28 -10.5h-430v-276h313q17 0 28 -11t11 -27t-11.5 -27t-27.5 -11h-313v-279h430q17 0 28 -10.5zM316 975q16 -16 16 -39 t-16 -39t-39 -16t-39 16t-16 39t16 39t39 16t39 -16zM525 975q16 -16 16 -39t-16 -39t-39 -16t-39 16t-16 39t16 39t39 16t39 -16z" glyph-name="Edieresis"/>
<glyph horiz-adv-x="278" unicode="Ì" d="M111.5 770q11.5 11 27.5 11q17 0 28 -11t11 -28v-703q0 -16 -11 -27.5t-28 -11.5q-16 0 -27.5 11.5t-11.5 27.5v703q0 17 11.5 28zM-11 1020q0 17 11 28.5t27 11.5t28 -12l112 -113q10 -9 10 -25q0 -17 -11 -28.5t-28 -11.5q-15 0 -26 11l-113 112q-10 10 -10 27z" glyph-name="Igrave"/>
<glyph horiz-adv-x="278" unicode="Í" d="M111.5 770q11.5 11 27.5 11q17 0 28 -11t11 -28v-703q0 -16 -11 -27.5t-28 -11.5q-16 0 -27.5 11.5t-11.5 27.5v703q0 17 11.5 28zM242 1053q17 0 28 -11.5t11 -28.5q0 -16 -11 -26l-112 -113q-10 -10 -26 -10q-17 0 -28 11.5t-11 27.5t9 26l113 113q11 11 27 11z" glyph-name="Iacute"/>
<glyph horiz-adv-x="278" unicode="Î" d="M111.5 770q11.5 11 27.5 11q17 0 28 -11t11 -28v-703q0 -16 -11 -27.5t-28 -11.5q-16 0 -27.5 11.5t-11.5 27.5v703q0 17 11.5 28zM23 868q-17 0 -28.5 9.5t-11.5 25.5q0 21 19 34l118 78q8 5 19 5q10 0 20 -5l117 -78q19 -13 19 -34q0 -15 -11 -25t-28 -10q-11 0 -24 8 l-93 64l-93 -64q-11 -8 -23 -8z" glyph-name="Icircumflex"/>
<glyph horiz-adv-x="278" unicode="Ï" d="M111.5 770q11.5 11 27.5 11q17 0 28 -11t11 -28v-703q0 -16 -11 -27.5t-28 -11.5q-16 0 -27.5 11.5t-11.5 27.5v703q0 17 11.5 28zM74 975q16 -16 16 -39t-16 -39t-39 -16t-39 16t-16 39t16 39t39 16t39 -16zM283 975q16 -16 16 -39t-16 -39t-39 -16t-39 16t-16 39t16 39 t39 16t39 -16z" glyph-name="Idieresis"/>
<glyph horiz-adv-x="770" unicode="Ð" d="M521 731q89 -50 138.5 -138.5t49.5 -201.5t-49.5 -202t-138.5 -139t-202 -50h-180q-17 0 -28 11t-11 28v318h-64q-16 0 -26 9t-10 25t10 25t26 9h64v317q0 17 11 28t28 11h180q113 0 202 -50zM481 111.5q71 41.5 111 114.5t40 165t-40 165t-111 114t-162 41h-141v-286 h150q17 0 27 -9t10 -25t-10 -25t-27 -9h-150v-287h141q91 0 162 41.5z" glyph-name="Eth"/>
<glyph horiz-adv-x="825" unicode="Ñ" d="M658.5 770q11.5 11 27.5 11q17 0 28 -11t11 -28v-703q0 -16 -11 -27.5t-28 -11.5q-20 0 -29 13l-479 628v-602q0 -16 -11 -27.5t-28 -11.5t-28 11t-11 28v703q0 17 11 28t28 11q18 0 30 -14l478 -628v603q0 17 11.5 28zM410 976q20 -8 46 -24q23 -14 34.5 -19t26.5 -5 q31 0 49 20q15 17 31 17q8 0 16 -5q18 -9 18 -28q0 -11 -8 -22q-40 -49 -105 -49q-28 0 -50 9t-47 24q-21 13 -34 18t-26 5q-37 0 -66 -35q-6 -9 -15 -14t-18 -5t-17 5q-7 4 -11.5 11.5t-4.5 15.5q0 12 7 22q25 32 58 49.5t69 17.5q27 0 47 -8z" glyph-name="Ntilde"/>
<glyph horiz-adv-x="921" unicode="Ò" d="M665.5 739q91.5 -52 143 -143t51.5 -205t-51.5 -205.5t-143 -143.5t-204.5 -52q-114 0 -205 52t-142.5 143.5t-51.5 205.5t51.5 205t142.5 143t205 52q113 0 204.5 -52zM295.5 674q-73.5 -43 -115.5 -117.5t-42 -165.5q0 -92 42 -166.5t115.5 -117.5t165.5 -43 q91 0 164.5 43t115.5 117.5t42 166.5q0 91 -42 165.5t-115.5 117.5t-164.5 43q-92 0 -165.5 -43zM311 1020q0 17 11 28.5t27 11.5t28 -12l112 -113q10 -9 10 -25q0 -17 -11 -28.5t-28 -11.5q-15 0 -26 11l-113 112q-10 10 -10 27z" glyph-name="Ograve"/>
<glyph horiz-adv-x="921" unicode="Ó" d="M665.5 739q91.5 -52 143 -143t51.5 -205t-51.5 -205.5t-143 -143.5t-204.5 -52q-114 0 -205 52t-142.5 143.5t-51.5 205.5t51.5 205t142.5 143t205 52q113 0 204.5 -52zM295.5 674q-73.5 -43 -115.5 -117.5t-42 -165.5q0 -92 42 -166.5t115.5 -117.5t165.5 -43 q91 0 164.5 43t115.5 117.5t42 166.5q0 91 -42 165.5t-115.5 117.5t-164.5 43q-92 0 -165.5 -43zM564 1053q17 0 28 -11.5t11 -28.5q0 -16 -11 -26l-112 -113q-10 -10 -26 -10q-17 0 -28 11.5t-11 27.5t9 26l113 113q11 11 27 11z" glyph-name="Oacute"/>
<glyph horiz-adv-x="921" unicode="Ô" d="M665.5 739q91.5 -52 143 -143t51.5 -205t-51.5 -205.5t-143 -143.5t-204.5 -52q-114 0 -205 52t-142.5 143.5t-51.5 205.5t51.5 205t142.5 143t205 52q113 0 204.5 -52zM295.5 674q-73.5 -43 -115.5 -117.5t-42 -165.5q0 -92 42 -166.5t115.5 -117.5t165.5 -43 q91 0 164.5 43t115.5 117.5t42 166.5q0 91 -42 165.5t-115.5 117.5t-164.5 43q-92 0 -165.5 -43zM345 868q-17 0 -28.5 9.5t-11.5 25.5q0 21 19 34l118 78q8 5 19 5q10 0 20 -5l117 -78q19 -13 19 -34q0 -15 -11 -25t-28 -10q-11 0 -24 8l-93 64l-93 -64q-11 -8 -23 -8z" glyph-name="Ocircumflex"/>
<glyph horiz-adv-x="921" unicode="Õ" d="M665.5 739q91.5 -52 143 -143t51.5 -205t-51.5 -205.5t-143 -143.5t-204.5 -52q-114 0 -205 52t-142.5 143.5t-51.5 205.5t51.5 205t142.5 143t205 52q113 0 204.5 -52zM295.5 674q-73.5 -43 -115.5 -117.5t-42 -165.5q0 -92 42 -166.5t115.5 -117.5t165.5 -43 q91 0 164.5 43t115.5 117.5t42 166.5q0 91 -42 165.5t-115.5 117.5t-164.5 43q-92 0 -165.5 -43zM458 976q20 -8 46 -24q23 -14 34.5 -19t26.5 -5q31 0 49 20q15 17 31 17q8 0 16 -5q18 -9 18 -28q0 -11 -8 -22q-40 -49 -105 -49q-28 0 -50 9t-47 24q-21 13 -34 18t-26 5 q-37 0 -66 -35q-6 -9 -15 -14t-18 -5t-17 5q-7 4 -11.5 11.5t-4.5 15.5q0 12 7 22q25 32 58 49.5t69 17.5q27 0 47 -8z" glyph-name="Otilde"/>
<glyph horiz-adv-x="921" unicode="Ö" d="M665.5 739q91.5 -52 143 -143t51.5 -205t-51.5 -205.5t-143 -143.5t-204.5 -52q-114 0 -205 52t-142.5 143.5t-51.5 205.5t51.5 205t142.5 143t205 52q113 0 204.5 -52zM295.5 674q-73.5 -43 -115.5 -117.5t-42 -165.5q0 -92 42 -166.5t115.5 -117.5t165.5 -43 q91 0 164.5 43t115.5 117.5t42 166.5q0 91 -42 165.5t-115.5 117.5t-164.5 43q-92 0 -165.5 -43zM396 975q16 -16 16 -39t-16 -39t-39 -16t-39 16t-16 39t16 39t39 16t39 -16zM605 975q16 -16 16 -39t-16 -39t-39 -16t-39 16t-16 39t16 39t39 16t39 -16z" glyph-name="Odieresis"/>
<glyph horiz-adv-x="469" unicode="×" d="M391 547q16 0 27.5 -11.5t11.5 -27.5t-11 -27l-129 -129l129 -129q11 -13 11 -28q0 -16 -11.5 -27.5t-27.5 -11.5q-17 0 -27 10l-130 130l-129 -130q-11 -10 -27 -10t-27.5 11.5t-11.5 27.5q0 15 10 28l130 129l-130 129q-10 12 -10 26q0 17 11 28.5t28 11.5q15 0 28 -11 l128 -129l129 129q11 11 28 11z" glyph-name="multiply"/>
<glyph horiz-adv-x="884" unicode="Ø" d="M836.5 534q23.5 -67 23.5 -143q0 -114 -51.5 -205.5t-143 -143.5t-204.5 -52q-79 0 -148 26t-122 73l-81 -81q-8 -8 -21 -8q-14 0 -22.5 9t-8.5 22q0 12 8 20l82 82q-41 53 -63.5 118.5t-22.5 139.5q0 114 51.5 205t142.5 143t205 52q77 0 145 -24.5t120 -70.5l78 77 q8 8 21 8t22.5 -9t9.5 -21q0 -11 -9 -20l-79 -79q44 -51 67.5 -118zM295.5 674q-73.5 -43 -115.5 -117.5t-42 -165.5q0 -119 69 -207l461 461q-42 34 -95 53t-112 19q-92 0 -165.5 -43zM625.5 107q73.5 43 115.5 117.5t42 166.5q0 60 -18.5 114t-53.5 96l-462 -462 q43 -36 97 -55.5t115 -19.5q91 0 164.5 43z" glyph-name="Oslash"/>
<glyph horiz-adv-x="819" unicode="Ù" d="M111 770q11 11 28 11t28 -11t11 -28v-484q0 -58 29.5 -103.5t82.5 -71t121 -25.5q67 0 119 25.5t81.5 71t29.5 103.5v484q0 17 11 28t28 11t28 -11t11 -28v-484q0 -79 -39.5 -141.5t-109.5 -97.5t-159 -35q-90 0 -161 35t-110.5 97.5t-39.5 141.5v484q0 17 11 28z M260 1020q0 17 11 28.5t27 11.5t28 -12l112 -113q10 -9 10 -25q0 -17 -11 -28.5t-28 -11.5q-15 0 -26 11l-113 112q-10 10 -10 27z" glyph-name="Ugrave"/>
<glyph horiz-adv-x="819" unicode="Ú" d="M111 770q11 11 28 11t28 -11t11 -28v-484q0 -58 29.5 -103.5t82.5 -71t121 -25.5q67 0 119 25.5t81.5 71t29.5 103.5v484q0 17 11 28t28 11t28 -11t11 -28v-484q0 -79 -39.5 -141.5t-109.5 -97.5t-159 -35q-90 0 -161 35t-110.5 97.5t-39.5 141.5v484q0 17 11 28z M513 1053q17 0 28 -11.5t11 -28.5q0 -16 -11 -26l-112 -113q-10 -10 -26 -10q-17 0 -28 11.5t-11 27.5t9 26l113 113q11 11 27 11z" glyph-name="Uacute"/>
<glyph horiz-adv-x="819" unicode="Û" d="M111 770q11 11 28 11t28 -11t11 -28v-484q0 -58 29.5 -103.5t82.5 -71t121 -25.5q67 0 119 25.5t81.5 71t29.5 103.5v484q0 17 11 28t28 11t28 -11t11 -28v-484q0 -79 -39.5 -141.5t-109.5 -97.5t-159 -35q-90 0 -161 35t-110.5 97.5t-39.5 141.5v484q0 17 11 28z M294 868q-17 0 -28.5 9.5t-11.5 25.5q0 21 19 34l118 78q8 5 19 5q10 0 20 -5l117 -78q19 -13 19 -34q0 -15 -11 -25t-28 -10q-11 0 -24 8l-93 64l-93 -64q-11 -8 -23 -8z" glyph-name="Ucircumflex"/>
<glyph horiz-adv-x="819" unicode="Ü" d="M111 770q11 11 28 11t28 -11t11 -28v-484q0 -58 29.5 -103.5t82.5 -71t121 -25.5q67 0 119 25.5t81.5 71t29.5 103.5v484q0 17 11 28t28 11t28 -11t11 -28v-484q0 -79 -39.5 -141.5t-109.5 -97.5t-159 -35q-90 0 -161 35t-110.5 97.5t-39.5 141.5v484q0 17 11 28z M345 975q16 -16 16 -39t-16 -39t-39 -16t-39 16t-16 39t16 39t39 16t39 -16zM554 975q16 -16 16 -39t-16 -39t-39 -16t-39 16t-16 39t16 39t39 16t39 -16z" glyph-name="Udieresis"/>
<glyph horiz-adv-x="648" unicode="Ý" d="M633.5 770.5q9.5 -10.5 9.5 -25.5q0 -14 -7 -25l-273 -431v-250q0 -16 -11 -27.5t-28 -11.5q-16 0 -27.5 11.5t-11.5 27.5v250l-272 431q-8 13 -8 25q0 15 11 25.5t27 10.5q11 0 18.5 -4.5t14.5 -14.5l249 -401l248 399q8 11 16 16t20 5q15 0 24.5 -10.5zM427 1053 q17 0 28 -11.5t11 -28.5q0 -16 -11 -26l-112 -113q-10 -10 -26 -10q-17 0 -28 11.5t-11 27.5t9 26l113 113q11 11 27 11z" glyph-name="Yacute"/>
<glyph horiz-adv-x="612" unicode="Þ" d="M167 11q-11 -11 -28 -11t-28 11t-11 28v703q0 17 11.5 28t27.5 11q17 0 28 -11t11 -28v-98h161q73 0 130.5 -29t89.5 -81.5t32 -120.5q0 -67 -32 -118.5t-89.5 -80.5t-130.5 -29h-161v-146q0 -17 -11 -28zM430 274q40 21 62.5 57.5t22.5 81.5q0 46 -22.5 83t-62.5 58.5 t-91 21.5h-161v-323h161q51 0 91 21z" glyph-name="Thorn"/>
<glyph horiz-adv-x="547" unicode="ß" d="M78.5 677.5q26.5 44.5 74.5 70.5t109 26q55 0 98.5 -22.5t68 -62.5t24.5 -91q0 -35 -13.5 -60.5t-38.5 -54.5q-19 -22 -28.5 -38t-9.5 -35q0 -21 13.5 -38t45.5 -48q43 -38 67.5 -73t24.5 -84q0 -48 -25 -87t-69 -61.5t-99 -22.5q-35 0 -70 12.5t-57.5 32.5t-22.5 41 q0 15 8.5 24.5t23.5 9.5q11 0 18 -4t17 -13q15 -14 33 -22t54 -8q53 0 83 25.5t30 72.5q0 34 -18 59t-56 61t-56 61t-18 60q0 29 11.5 48.5t34.5 44.5q23 26 34 45t11 48q0 52 -32.5 80t-88.5 28t-93 -36.5t-37 -93.5v-534q0 -17 -11 -27.5t-29 -10.5q-16 0 -27 11t-11 27 v540q0 55 26.5 99.5z" glyph-name="germandbls"/>
<glyph unicode="à" d="M480.5 515.5q63.5 -36.5 100 -100.5t36.5 -142v-235q0 -16 -11 -27t-28 -11t-28 10.5t-11 27.5v60q-35 -48 -89 -75.5t-119 -27.5q-76 0 -137.5 36.5t-97 100t-35.5 141.5t36.5 142t100 100.5t141.5 36.5t141.5 -36.5zM442 92q46 27 72.5 74.5t26.5 106.5t-26.5 106.5 t-72.5 75t-103 27.5t-103.5 -27.5t-73 -75t-26.5 -106.5t26.5 -106.5t73 -74.5t103.5 -27t103 27zM189 786q0 17 11 28.5t27 11.5t28 -12l112 -113q10 -9 10 -25q0 -17 -11 -28.5t-28 -11.5q-15 0 -26 11l-113 112q-10 10 -10 27z" glyph-name="agrave"/>
<glyph unicode="á" d="M480.5 515.5q63.5 -36.5 100 -100.5t36.5 -142v-235q0 -16 -11 -27t-28 -11t-28 10.5t-11 27.5v60q-35 -48 -89 -75.5t-119 -27.5q-76 0 -137.5 36.5t-97 100t-35.5 141.5t36.5 142t100 100.5t141.5 36.5t141.5 -36.5zM442 92q46 27 72.5 74.5t26.5 106.5t-26.5 106.5 t-72.5 75t-103 27.5t-103.5 -27.5t-73 -75t-26.5 -106.5t26.5 -106.5t73 -74.5t103.5 -27t103 27zM442 819q17 0 28 -11.5t11 -28.5q0 -16 -11 -26l-112 -113q-10 -10 -26 -10q-17 0 -28 11.5t-11 27.5t9 26l113 113q11 11 27 11z" glyph-name="aacute"/>
<glyph unicode="â" d="M480.5 515.5q63.5 -36.5 100 -100.5t36.5 -142v-235q0 -16 -11 -27t-28 -11t-28 10.5t-11 27.5v60q-35 -48 -89 -75.5t-119 -27.5q-76 0 -137.5 36.5t-97 100t-35.5 141.5t36.5 142t100 100.5t141.5 36.5t141.5 -36.5zM442 92q46 27 72.5 74.5t26.5 106.5t-26.5 106.5 t-72.5 75t-103 27.5t-103.5 -27.5t-73 -75t-26.5 -106.5t26.5 -106.5t73 -74.5t103.5 -27t103 27zM223 634q-17 0 -28.5 9.5t-11.5 25.5q0 21 19 34l118 78q8 5 19 5q10 0 20 -5l117 -78q19 -13 19 -34q0 -15 -11 -25t-28 -10q-11 0 -24 8l-93 64l-93 -64q-11 -8 -23 -8z " glyph-name="acircumflex"/>
<glyph unicode="ã" d="M480.5 515.5q63.5 -36.5 100 -100.5t36.5 -142v-235q0 -16 -11 -27t-28 -11t-28 10.5t-11 27.5v60q-35 -48 -89 -75.5t-119 -27.5q-76 0 -137.5 36.5t-97 100t-35.5 141.5t36.5 142t100 100.5t141.5 36.5t141.5 -36.5zM442 92q46 27 72.5 74.5t26.5 106.5t-26.5 106.5 t-72.5 75t-103 27.5t-103.5 -27.5t-73 -75t-26.5 -106.5t26.5 -106.5t73 -74.5t103.5 -27t103 27zM336 742q20 -8 46 -24q23 -14 34.5 -19t26.5 -5q31 0 49 20q15 17 31 17q8 0 16 -5q18 -9 18 -28q0 -11 -8 -22q-40 -49 -105 -49q-28 0 -50 9t-47 24q-21 13 -34 18t-26 5 q-37 0 -66 -35q-6 -9 -15 -14t-18 -5t-17 5q-7 4 -11.5 11.5t-4.5 15.5q0 12 7 22q25 32 58 49.5t69 17.5q27 0 47 -8z" glyph-name="atilde"/>
<glyph unicode="ä" d="M480.5 515.5q63.5 -36.5 100 -100.5t36.5 -142v-235q0 -16 -11 -27t-28 -11t-28 10.5t-11 27.5v60q-35 -48 -89 -75.5t-119 -27.5q-76 0 -137.5 36.5t-97 100t-35.5 141.5t36.5 142t100 100.5t141.5 36.5t141.5 -36.5zM442 92q46 27 72.5 74.5t26.5 106.5t-26.5 106.5 t-72.5 75t-103 27.5t-103.5 -27.5t-73 -75t-26.5 -106.5t26.5 -106.5t73 -74.5t103.5 -27t103 27zM274 741q16 -16 16 -39t-16 -39t-39 -16t-39 16t-16 39t16 39t39 16t39 -16zM483 741q16 -16 16 -39t-16 -39t-39 -16t-39 16t-16 39t16 39t39 16t39 -16z" glyph-name="adieresis"/>
<glyph unicode="å" d="M480.5 515.5q63.5 -36.5 100 -100.5t36.5 -142v-235q0 -16 -11 -27t-28 -11t-28 10.5t-11 27.5v60q-35 -48 -89 -75.5t-119 -27.5q-76 0 -137.5 36.5t-97 100t-35.5 141.5t36.5 142t100 100.5t141.5 36.5t141.5 -36.5zM442 92q46 27 72.5 74.5t26.5 106.5t-26.5 106.5 t-72.5 75t-103 27.5t-103.5 -27.5t-73 -75t-26.5 -106.5t26.5 -106.5t73 -74.5t103.5 -27t103 27zM409 761q28 -28 28 -70t-28 -70t-70 -28q-41 0 -69.5 28t-28.5 70t28.5 70t69.5 28q42 0 70 -28zM302 728.5q-15 -15.5 -15 -37.5t15 -37.5t37 -15.5q23 0 38 15.5t15 37.5 q0 23 -15 38t-38 15q-22 0 -37 -15.5z" glyph-name="aring"/>
<glyph horiz-adv-x="1096" unicode="æ" d="M937 517.5q57 -34.5 88 -95.5t31 -139q0 -16 -10 -25.5t-26 -9.5h-403v-7q10 -79 66 -128t137 -49q39 0 73.5 12t57.5 32q13 10 27 10t22 -8q14 -12 14 -27q0 -12 -12 -23q-33 -28 -84 -46.5t-98 -18.5q-62 0 -114 23.5t-89 66.5v-47q0 -16 -11 -27t-28 -11t-28 10.5 t-11 27.5v60q-35 -48 -89 -75.5t-119 -27.5q-76 0 -137.5 36.5t-97 100t-35.5 141.5t36.5 142t100 100.5t141.5 36.5q79 0 143.5 -38t99.5 -103q31 66 89.5 103.5t133.5 37.5t132 -34.5zM679 436q-50 -47 -61 -124h367q-8 77 -56.5 124t-123.5 47q-76 0 -126 -47zM442 92 q46 27 72.5 74.5t26.5 106.5t-26.5 106.5t-72.5 75t-103 27.5t-103.5 -27.5t-73 -75t-26.5 -106.5t26.5 -106.5t73 -74.5t103.5 -27t103 27z" glyph-name="ae"/>
<glyph horiz-adv-x="596" unicode="ç" d="M527 456q8 -9 8 -21q0 -16 -17 -28q-9 -6 -19 -6q-15 0 -29 15q-30 33 -66 49.5t-80 16.5q-55 0 -98 -26.5t-66.5 -74.5t-23.5 -108q0 -59 25 -106.5t70 -74.5t103 -27q80 0 129 43q13 11 27 11q12 0 22 -8q14 -12 14 -27q0 -13 -10 -22q-72 -67 -182 -67 q-78 0 -140 36.5t-97.5 100t-35.5 141.5q0 80 34 143.5t94 99.5t135 36q125 0 203 -96zM424.5 -72q21.5 -23 21.5 -57q0 -28 -18 -52t-49 -38t-69 -14q-52 0 -87 22t-35 52q0 15 11 26t26 11q19 0 35 -21q16 -24 51 -24q23 0 38 10t15 28q0 19 -12 30t-40 18q-19 4 -29 11.5 t-10 20.5q0 8 5 23l16 41q10 30 44 30q15 0 24 -8.5t9 -21.5q0 -7 -3 -15l-15 -36q50 -13 71.5 -36z" glyph-name="ccedilla"/>
<glyph horiz-adv-x="614" unicode="è" d="M454 517.5q57 -34.5 88.5 -95.5t31.5 -139q0 -16 -10 -25.5t-26 -9.5h-404q8 -82 64 -133t140 -51q36 0 72.5 12.5t58.5 31.5q13 10 27 10q11 0 22 -8q13 -12 13 -27q0 -13 -11 -23q-33 -28 -84 -46.5t-98 -18.5q-80 0 -143 35.5t-98.5 99t-35.5 143.5q0 81 33.5 144.5 t93 99t135.5 35.5q74 0 131 -34.5zM197 436q-50 -47 -61 -124h366q-8 77 -56 124t-123 47q-76 0 -126 -47zM168 786q0 17 11 28.5t27 11.5t28 -12l112 -113q10 -9 10 -25q0 -17 -11 -28.5t-28 -11.5q-15 0 -26 11l-113 112q-10 10 -10 27z" glyph-name="egrave"/>
<glyph horiz-adv-x="614" unicode="é" d="M454 517.5q57 -34.5 88.5 -95.5t31.5 -139q0 -16 -10 -25.5t-26 -9.5h-404q8 -82 64 -133t140 -51q36 0 72.5 12.5t58.5 31.5q13 10 27 10q11 0 22 -8q13 -12 13 -27q0 -13 -11 -23q-33 -28 -84 -46.5t-98 -18.5q-80 0 -143 35.5t-98.5 99t-35.5 143.5q0 81 33.5 144.5 t93 99t135.5 35.5q74 0 131 -34.5zM197 436q-50 -47 -61 -124h366q-8 77 -56 124t-123 47q-76 0 -126 -47zM421 819q17 0 28 -11.5t11 -28.5q0 -16 -11 -26l-112 -113q-10 -10 -26 -10q-17 0 -28 11.5t-11 27.5t9 26l113 113q11 11 27 11z" glyph-name="eacute"/>
<glyph horiz-adv-x="614" unicode="ê" d="M454 517.5q57 -34.5 88.5 -95.5t31.5 -139q0 -16 -10 -25.5t-26 -9.5h-404q8 -82 64 -133t140 -51q36 0 72.5 12.5t58.5 31.5q13 10 27 10q11 0 22 -8q13 -12 13 -27q0 -13 -11 -23q-33 -28 -84 -46.5t-98 -18.5q-80 0 -143 35.5t-98.5 99t-35.5 143.5q0 81 33.5 144.5 t93 99t135.5 35.5q74 0 131 -34.5zM197 436q-50 -47 -61 -124h366q-8 77 -56 124t-123 47q-76 0 -126 -47zM202 634q-17 0 -28.5 9.5t-11.5 25.5q0 21 19 34l118 78q8 5 19 5q10 0 20 -5l117 -78q19 -13 19 -34q0 -15 -11 -25t-28 -10q-11 0 -24 8l-93 64l-93 -64 q-11 -8 -23 -8z" glyph-name="ecircumflex"/>
<glyph horiz-adv-x="614" unicode="ë" d="M454 517.5q57 -34.5 88.5 -95.5t31.5 -139q0 -16 -10 -25.5t-26 -9.5h-404q8 -82 64 -133t140 -51q36 0 72.5 12.5t58.5 31.5q13 10 27 10q11 0 22 -8q13 -12 13 -27q0 -13 -11 -23q-33 -28 -84 -46.5t-98 -18.5q-80 0 -143 35.5t-98.5 99t-35.5 143.5q0 81 33.5 144.5 t93 99t135.5 35.5q74 0 131 -34.5zM197 436q-50 -47 -61 -124h366q-8 77 -56 124t-123 47q-76 0 -126 -47zM253 741q16 -16 16 -39t-16 -39t-39 -16t-39 16t-16 39t16 39t39 16t39 -16zM462 741q16 -16 16 -39t-16 -39t-39 -16t-39 16t-16 39t16 39t39 16t39 -16z" glyph-name="edieresis"/>
<glyph horiz-adv-x="289" unicode="ì" d="M117 536q11 11 28 11t27.5 -11t10.5 -28v-469q0 -17 -10.5 -28t-27.5 -11t-28 11t-11 28v469q0 17 11 28zM-5 786q0 17 11 28.5t27 11.5t28 -12l112 -113q10 -9 10 -25q0 -17 -11 -28.5t-28 -11.5q-15 0 -26 11l-113 112q-10 10 -10 27z" glyph-name="igrave"/>
<glyph horiz-adv-x="289" unicode="í" d="M117 536q11 11 28 11t27.5 -11t10.5 -28v-469q0 -17 -10.5 -28t-27.5 -11t-28 11t-11 28v469q0 17 11 28zM248 819q17 0 28 -11.5t11 -28.5q0 -16 -11 -26l-112 -113q-10 -10 -26 -10q-17 0 -28 11.5t-11 27.5t9 26l113 113q11 11 27 11z" glyph-name="iacute"/>
<glyph horiz-adv-x="289" unicode="î" d="M117 536q11 11 28 11t27.5 -11t10.5 -28v-469q0 -17 -10.5 -28t-27.5 -11t-28 11t-11 28v469q0 17 11 28zM40.4111 634q-15.2988 0 -25.6484 9.5t-10.3496 25.5q0 21 17.0996 34l106.195 78q7.2002 5 17.0996 5q8.99902 0 17.999 -5l105.296 -78q17.0986 -13 17.0986 -34 q0 -15 -9.89941 -25t-25.1992 -10q-9.89941 0 -21.5986 8l-83.6963 64l-83.6973 -64q-9.89941 -8 -20.6992 -8z" glyph-name="icircumflex"/>
<glyph horiz-adv-x="289" unicode="ï" d="M88.5 764q16.5 -16 16.5 -38q0 -23 -16 -39.5t-39 -16.5t-39.5 16.5t-16.5 39.5q0 22 16.5 38t39.5 16q22 0 38.5 -16zM277.5 764q16.5 -16 16.5 -38q0 -23 -16 -39.5t-39 -16.5t-39 16.5t-16 39.5q0 22 16 38t39 16q22 0 38.5 -16zM117 536q11 11 28 11t27.5 -11 t10.5 -28v-469q0 -17 -10.5 -28t-27.5 -11t-28 11t-11 28v469q0 17 11 28z" glyph-name="idieresis"/>
<glyph horiz-adv-x="667" unicode="ð" d="M497 650q52 -53 75.5 -124.5t24.5 -170.5v-82q0 -80 -35 -143.5t-96 -99t-139 -35.5q-77 0 -137.5 33.5t-94.5 93.5t-34 136q0 75 33 134.5t91.5 92.5t133.5 33q76 0 133.5 -38t84.5 -103q-6 121 -53.5 192t-155.5 121l-35 -69q-7 -15 -23 -15q-8 0 -15 4q-15 8 -15 22 q0 7 4 14l33 65q-16 7 -52 19q-33 12 -33 33q0 3 2 11q7 20 29 20q7 0 21 -4q22 -7 62 -23l28 56q7 16 22 16q8 0 15 -4q16 -9 16 -23q0 -4 -4 -14l-27 -53q89 -42 141 -95zM427.5 89.5q44.5 24.5 69.5 68.5t25 100q0 55 -25 98.5t-69.5 67.5t-100.5 24q-55 0 -98.5 -24 t-68 -67.5t-24.5 -98.5q0 -56 24.5 -100t68 -68.5t98.5 -24.5q56 0 100.5 24.5z" glyph-name="eth"/>
<glyph unicode="ñ" d="M476.5 523q56.5 -30 88.5 -87.5t32 -137.5v-260q0 -16 -11 -27t-27 -11q-17 0 -28 11t-11 27v260q0 89 -49.5 135.5t-129.5 46.5q-49 0 -88.5 -19t-62.5 -52.5t-23 -74.5v-296q0 -17 -10.5 -27.5t-27.5 -10.5t-28 10.5t-11 27.5v470q0 17 11 28t28 11t27.5 -11t10.5 -28 v-34q33 37 80 58t102 21q71 0 127.5 -30zM336 742q20 -8 46 -24q23 -14 34.5 -19t26.5 -5q31 0 49 20q15 17 31 17q8 0 16 -5q18 -9 18 -28q0 -11 -8 -22q-40 -49 -105 -49q-28 0 -50 9t-47 24q-21 13 -34 18t-26 5q-37 0 -66 -35q-6 -9 -15 -14t-18 -5t-17 5 q-7 4 -11.5 11.5t-4.5 15.5q0 12 7 22q25 32 58 49.5t69 17.5q27 0 47 -8z" glyph-name="ntilde"/>
<glyph unicode="ò" d="M481 516q63 -36 99.5 -100t36.5 -143t-36 -142.5t-99.5 -99.5t-142.5 -36t-142.5 36t-99.5 99.5t-36 142.5t36 143t99.5 100t142.5 36t142 -36zM235.5 455q-46.5 -27 -73 -74.5t-26.5 -107.5q0 -59 26.5 -106.5t73 -74.5t103.5 -27q58 0 104 27t72 74.5t26 106.5 q0 60 -26 107.5t-72 74.5t-104 27q-57 0 -103.5 -27zM189 786q0 17 11 28.5t27 11.5t28 -12l112 -113q10 -9 10 -25q0 -17 -11 -28.5t-28 -11.5q-15 0 -26 11l-113 112q-10 10 -10 27z" glyph-name="ograve"/>
<glyph unicode="ó" d="M481 516q63 -36 99.5 -100t36.5 -143t-36 -142.5t-99.5 -99.5t-142.5 -36t-142.5 36t-99.5 99.5t-36 142.5t36 143t99.5 100t142.5 36t142 -36zM235.5 455q-46.5 -27 -73 -74.5t-26.5 -107.5q0 -59 26.5 -106.5t73 -74.5t103.5 -27q58 0 104 27t72 74.5t26 106.5 q0 60 -26 107.5t-72 74.5t-104 27q-57 0 -103.5 -27zM442 819q17 0 28 -11.5t11 -28.5q0 -16 -11 -26l-112 -113q-10 -10 -26 -10q-17 0 -28 11.5t-11 27.5t9 26l113 113q11 11 27 11z" glyph-name="oacute"/>
<glyph unicode="ô" d="M481 516q63 -36 99.5 -100t36.5 -143t-36 -142.5t-99.5 -99.5t-142.5 -36t-142.5 36t-99.5 99.5t-36 142.5t36 143t99.5 100t142.5 36t142 -36zM235.5 455q-46.5 -27 -73 -74.5t-26.5 -107.5q0 -59 26.5 -106.5t73 -74.5t103.5 -27q58 0 104 27t72 74.5t26 106.5 q0 60 -26 107.5t-72 74.5t-104 27q-57 0 -103.5 -27zM223 634q-17 0 -28.5 9.5t-11.5 25.5q0 21 19 34l118 78q8 5 19 5q10 0 20 -5l117 -78q19 -13 19 -34q0 -15 -11 -25t-28 -10q-11 0 -24 8l-93 64l-93 -64q-11 -8 -23 -8z" glyph-name="ocircumflex"/>
<glyph unicode="õ" d="M481 516q63 -36 99.5 -100t36.5 -143t-36 -142.5t-99.5 -99.5t-142.5 -36t-142.5 36t-99.5 99.5t-36 142.5t36 143t99.5 100t142.5 36t142 -36zM235.5 455q-46.5 -27 -73 -74.5t-26.5 -107.5q0 -59 26.5 -106.5t73 -74.5t103.5 -27q58 0 104 27t72 74.5t26 106.5 q0 60 -26 107.5t-72 74.5t-104 27q-57 0 -103.5 -27zM336 742q20 -8 46 -24q23 -14 34.5 -19t26.5 -5q31 0 49 20q15 17 31 17q8 0 16 -5q18 -9 18 -28q0 -11 -8 -22q-40 -49 -105 -49q-28 0 -50 9t-47 24q-21 13 -34 18t-26 5q-37 0 -66 -35q-6 -9 -15 -14t-18 -5t-17 5 q-7 4 -11.5 11.5t-4.5 15.5q0 12 7 22q25 32 58 49.5t69 17.5q27 0 47 -8z" glyph-name="otilde"/>
<glyph unicode="ö" d="M481 516q63 -36 99.5 -100t36.5 -143t-36 -142.5t-99.5 -99.5t-142.5 -36t-142.5 36t-99.5 99.5t-36 142.5t36 143t99.5 100t142.5 36t142 -36zM235.5 455q-46.5 -27 -73 -74.5t-26.5 -107.5q0 -59 26.5 -106.5t73 -74.5t103.5 -27q58 0 104 27t72 74.5t26 106.5 q0 60 -26 107.5t-72 74.5t-104 27q-57 0 -103.5 -27zM274 741q16 -16 16 -39t-16 -39t-39 -16t-39 16t-16 39t16 39t39 16t39 -16zM483 741q16 -16 16 -39t-16 -39t-39 -16t-39 16t-16 39t16 39t39 16t39 -16z" glyph-name="odieresis"/>
<glyph horiz-adv-x="469" unicode="÷" d="M268 532.5q14 -14.5 14 -34.5t-13.5 -34t-34.5 -14q-20 0 -34.5 14t-14.5 34t14.5 34.5t34.5 14.5t34 -14.5zM419 379q11 -11 11 -27q0 -17 -11 -28t-28 -11h-313q-17 0 -28 11t-11 28q0 16 11 27t28 11h313q17 0 28 -11zM268 239.5q14 -14.5 14 -34.5q0 -21 -13.5 -35 t-34.5 -14q-20 0 -34.5 14.5t-14.5 34.5t14.5 34.5t34.5 14.5t34 -14.5z" glyph-name="divide"/>
<glyph horiz-adv-x="700" unicode="ø" d="M578 444q27 -35 41.5 -79.5t14.5 -93.5q0 -79 -36 -142.5t-99.5 -99.5t-142.5 -36q-103 0 -179 60l-63 -63q-9 -9 -22 -9t-22 9.5t-9 21.5t9 21l64 64q-56 75 -56 174q0 79 36 143t99.5 100t142.5 36q52 0 97.5 -15.5t81.5 -45.5l51 50q8 10 23 10q14 0 21.5 -9.5 t7.5 -22.5t-7 -20zM252.5 453q-46.5 -27 -73 -74.5t-26.5 -107.5q0 -73 39 -126l292 291q-53 44 -128 44q-57 0 -103.5 -27zM460 90q46 27 72 74.5t26 106.5q0 68 -34 121l-291 -289q54 -40 123 -40q58 0 104 27z" glyph-name="oslash"/>
<glyph unicode="ù" d="M576 536.5q11 -10.5 11 -27.5v-470q0 -17 -11 -28t-28 -11t-27.5 11t-10.5 28v34q-33 -37 -80 -58t-102 -21q-71 0 -127.5 30t-88.5 87.5t-32 137.5v260q0 16 11 27t27 11q17 0 28 -11t11 -27v-260q0 -89 49.5 -135.5t129.5 -46.5q49 0 88.5 19t62.5 52.5t23 74.5v296 q0 17 10.5 27.5t27.5 10.5t28 -10.5zM189 786q0 17 11 28.5t27 11.5t28 -12l112 -113q10 -9 10 -25q0 -17 -11 -28.5t-28 -11.5q-15 0 -26 11l-113 112q-10 10 -10 27z" glyph-name="ugrave"/>
<glyph unicode="ú" d="M576 536.5q11 -10.5 11 -27.5v-470q0 -17 -11 -28t-28 -11t-27.5 11t-10.5 28v34q-33 -37 -80 -58t-102 -21q-71 0 -127.5 30t-88.5 87.5t-32 137.5v260q0 16 11 27t27 11q17 0 28 -11t11 -27v-260q0 -89 49.5 -135.5t129.5 -46.5q49 0 88.5 19t62.5 52.5t23 74.5v296 q0 17 10.5 27.5t27.5 10.5t28 -10.5zM442 819q17 0 28 -11.5t11 -28.5q0 -16 -11 -26l-112 -113q-10 -10 -26 -10q-17 0 -28 11.5t-11 27.5t9 26l113 113q11 11 27 11z" glyph-name="uacute"/>
<glyph unicode="û" d="M576 536.5q11 -10.5 11 -27.5v-470q0 -17 -11 -28t-28 -11t-27.5 11t-10.5 28v34q-33 -37 -80 -58t-102 -21q-71 0 -127.5 30t-88.5 87.5t-32 137.5v260q0 16 11 27t27 11q17 0 28 -11t11 -27v-260q0 -89 49.5 -135.5t129.5 -46.5q49 0 88.5 19t62.5 52.5t23 74.5v296 q0 17 10.5 27.5t27.5 10.5t28 -10.5zM223 634q-17 0 -28.5 9.5t-11.5 25.5q0 21 19 34l118 78q8 5 19 5q10 0 20 -5l117 -78q19 -13 19 -34q0 -15 -11 -25t-28 -10q-11 0 -24 8l-93 64l-93 -64q-11 -8 -23 -8z" glyph-name="ucircumflex"/>
<glyph unicode="ü" d="M576 536.5q11 -10.5 11 -27.5v-470q0 -17 -11 -28t-28 -11t-27.5 11t-10.5 28v34q-33 -37 -80 -58t-102 -21q-71 0 -127.5 30t-88.5 87.5t-32 137.5v260q0 16 11 27t27 11q17 0 28 -11t11 -27v-260q0 -89 49.5 -135.5t129.5 -46.5q49 0 88.5 19t62.5 52.5t23 74.5v296 q0 17 10.5 27.5t27.5 10.5t28 -10.5zM274 741q16 -16 16 -39t-16 -39t-39 -16t-39 16t-16 39t16 39t39 16t39 -16zM483 741q16 -16 16 -39t-16 -39t-39 -16t-39 16t-16 39t16 39t39 16t39 -16z" glyph-name="udieresis"/>
<glyph horiz-adv-x="548" unicode="ý" d="M541 515q0 -9 -4 -18l-324 -712q-9 -23 -29 -23q-10 0 -18 4q-23 9 -23 30q0 9 4 18l99 219v1l-223 462q-4 8 -4 18q0 21 22 30q8 4 18 4q21 0 30 -21l195 -411l186 410q10 22 30 22q9 0 18 -4q23 -9 23 -29zM384 819q17 0 28 -11.5t11 -28.5q0 -16 -11 -26l-112 -113 q-10 -10 -26 -10q-17 0 -28 11.5t-11 27.5t9 26l113 113q11 11 27 11z" glyph-name="yacute"/>
<glyph horiz-adv-x="707" unicode="þ" d="M514.5 516.5q61.5 -35.5 96.5 -99t35 -144.5q0 -80 -34.5 -143.5t-96 -99t-139.5 -35.5q-70 0 -124.5 32t-84.5 88v-310q1 -17 -10 -28t-28 -11t-28 11t-11 28v937q0 17 11 28t28 11t28 -11t10 -28l-4 -314q32 60 90 92t123 32q77 0 138.5 -35.5zM472 91.5q46 26.5 72 74 t26 107.5t-26 107.5t-72 74.5t-105 27q-58 0 -104 -27t-71.5 -74.5t-25.5 -107.5t25.5 -107.5t71.5 -74t104 -26.5q59 0 105 26.5z" glyph-name="thorn"/>
<glyph horiz-adv-x="289" unicode="ı" d="M117 536q11 11 28 11t27.5 -11t10.5 -28v-469q0 -17 -10.5 -28t-27.5 -11t-28 11t-11 28v469q0 17 11 28z" glyph-name="dotlessi"/>
<glyph horiz-adv-x="285" unicode="ȷ" d="M149 -121q-30 -53 -83 -83t-121 -30q-17 0 -28 11t-11 28t11 28t28 11q69 0 113 44t44 112v508q0 17 10.5 28t27.5 11t28 -11t11 -28v-508q0 -68 -30 -121z" glyph-name="uni0237"/>
<glyph horiz-adv-x="273" unicode="˚" d="M205 761q28 -28 28 -70t-28 -70t-70 -28q-41 0 -69.5 28t-28.5 70t28.5 70t69.5 28q42 0 70 -28zM98 728.5q-15 -15.5 -15 -37.5t15 -37.5t37 -15.5q23 0 38 15.5t15 37.5q0 23 -15 38t-38 15q-22 0 -37 -15.5z" glyph-name="ring"/>
<glyph horiz-adv-x="469" unicode="˜" d="M220 742q20 -8 46 -24q23 -14 34.5 -19t26.5 -5q31 0 49 20q15 17 31 17q8 0 16 -5q18 -9 18 -28q0 -11 -8 -22q-40 -49 -105 -49q-28 0 -50 9t-47 24q-21 13 -34 18t-26 5q-37 0 -66 -35q-6 -9 -15 -14t-18 -5t-17 5q-7 4 -11.5 11.5t-4.5 15.5q0 12 7 22q25 32 58 49.5 t69 17.5q27 0 47 -8z" glyph-name="tilde"/>
<glyph horiz-adv-x="0" unicode="̀" d="M-230 786q0 17 11 28.5t27 11.5t28 -12l112 -113q10 -9 10 -25q0 -17 -11 -28.5t-28 -11.5q-15 0 -26 11l-113 112q-10 10 -10 27z" glyph-name="gravecomb"/>
<glyph horiz-adv-x="0" unicode="́" d="M-78 819q17 0 28 -11.5t11 -28.5q0 -16 -11 -26l-112 -113q-10 -10 -26 -10q-17 0 -28 11.5t-11 27.5t9 26l113 113q11 11 27 11z" glyph-name="acutecomb"/>
<glyph horiz-adv-x="0" unicode="̂" d="M-314 634q-17 0 -28.5 9.5t-11.5 25.5q0 21 19 34l118 78q8 5 19 5q10 0 20 -5l117 -78q19 -13 19 -34q0 -15 -11 -25t-28 -10q-11 0 -24 8l-93 64l-93 -64q-11 -8 -23 -8z" glyph-name="uni0302"/>
<glyph horiz-adv-x="0" unicode="̇" d="M-110 745q16 -15 16 -39q0 -23 -16 -39t-39 -16t-38.5 16t-15.5 39q0 24 16 39t39 15q22 0 38 -15z" glyph-name="uni0307"/>
<glyph horiz-adv-x="0" unicode="̈" d="M-309 741q16 -16 16 -39t-16 -39t-39 -16t-39 16t-16 39t16 39t39 16t39 -16zM-100 741q16 -16 16 -39t-16 -39t-39 -16t-39 16t-16 39t16 39t39 16t39 -16z" glyph-name="uni0308"/>
<glyph horiz-adv-x="313" unicode="⁄" d="M397 787q14 0 23 -8.5t9 -21.5q0 -11 -9 -25l-469 -712q-13 -20 -31 -20q-13 0 -21.5 8.5t-8.5 20.5q0 10 6 20l469 719q13 19 32 19z" glyph-name="fraction"/>
<glyph horiz-adv-x="394" unicode="⁴" d="M48.5 480.5q-10.5 9.5 -10.5 23.5q0 15 12 31l181 234q15 18 35 18q15 0 25.5 -9t10.5 -24v-223h35q14 0 22.5 -8t8.5 -22q0 -15 -8.5 -22.5t-22.5 -7.5h-35v-57q0 -32 -34 -32q-15 0 -24 9t-9 23v57h-160q-16 0 -26.5 9.5zM119 531h117l1 156z" glyph-name="uni2074"/>
<glyph horiz-adv-x="0" d="M-235.5 760.5q15.5 -9.5 37.5 -28.5q16 -14 24.5 -19t16.5 -5q7 0 13 5.5t12 18.5q5 11 15 17.5t20 6.5q4 0 10 -2q24 -10 24 -30q0 -9 -4 -16q-17 -35 -37 -50.5t-46 -15.5q-41 0 -78 37q-16 15 -25.5 21t-19.5 6q-11 0 -19.5 -9t-18.5 -28q-13 -21 -32 -21q-15 0 -24 9 t-9 22q0 9 4 17q19 39 42 56.5t53 17.5q26 0 41.5 -9.5z" glyph-name="tildecomb.i"/>
</font>
</defs>
</svg>
