<?xml version="1.0" encoding="UTF-8" standalone="no"?>
<svg
   xmlns:dc="http://purl.org/dc/elements/1.1/"
   xmlns:cc="http://creativecommons.org/ns#"
   xmlns:rdf="http://www.w3.org/1999/02/22-rdf-syntax-ns#"
   xmlns:svg="http://www.w3.org/2000/svg"
   xmlns="http://www.w3.org/2000/svg"
   viewBox="0 0 50 50"
   height="50"
   width="50"
   id="svg64"
   version="1.1">
  <metadata
     id="metadata70">
    <rdf:RDF>
      <cc:Work
         rdf:about="">
        <dc:format>image/svg+xml</dc:format>
        <dc:type
           rdf:resource="http://purl.org/dc/dcmitype/StillImage" />
        <dc:title></dc:title>
      </cc:Work>
    </rdf:RDF>
  </metadata>
  <defs
     id="defs68" />
  <path
     id="path74"
     d="m 8.6609297,43.067797 c 0.3929778,-5.651274 0.063447,-8.499448 -1.4943776,-12.916071 -1.0991901,-3.116338 -1.7357592,-5.928838 -1.414598,-6.25 1.4011493,-1.401149 3.3197669,-0.34693 4.8520919,2.666071 0.909071,1.7875 1.791072,3.407944 1.960001,3.600987 0.168929,0.193043 1.7992,-0.768057 3.622824,-2.135778 5.481268,-4.110962 11.925872,-7.005017 13.064196,-5.866693 0.680747,0.680747 -0.679895,2.050708 -4.169057,4.19761 -2.848789,1.752878 -4.98404,3.382626 -4.745003,3.621664 0.239038,0.239037 2.599675,-0.938427 5.24586,-2.616588 4.730237,-2.999829 8.419683,-3.936237 8.419683,-2.136976 0,0.502824 -2.25,2.298664 -5,3.990756 -6.45894,3.974226 -6.500622,5.053931 -0.05524,1.430801 5.485612,-3.083612 8.202717,-2.319879 3.666445,1.030578 -7.07269,5.223834 -8.134188,7.091062 -1.368033,2.406438 5.066621,-3.507932 5.125232,-0.750026 0.09149,4.304951 -2.659062,2.670284 -6.258605,6.445179 -7.998981,8.388656 -2.956606,3.30164 -3.558736,3.533594 -9.172886,3.533594 H 8.1567797 Z M 26.66239,47.538484 c 1.737912,-1.496378 4.662913,-3.625681 6.500001,-4.731785 2.911825,-1.7532 3.457093,-2.747043 4.252015,-7.75 0.501523,-3.156396 1.30016,-5.738902 1.774752,-5.738902 1.273415,0 2.850563,-4.739562 2.168557,-6.516839 -0.433467,-1.129597 -0.929798,-1.251147 -1.881996,-0.460893 -0.994496,0.825358 -1.442649,0.393172 -1.939898,-1.870784 -0.355648,-1.619255 -1.561093,-3.771675 -2.678767,-4.783156 -1.984673,-1.796105 -2.171767,-1.761706 -8.01068,1.472825 -4.954791,2.744762 -6.63053,3.20173 -9.786023,2.668612 -3.524183,-0.595406 -3.857705,-0.443146 -4.482535,2.046376 -0.642221,2.558811 -0.744049,2.59854 -2.093359,0.816752 C 9.6937006,21.64648 9.0520852,18.510269 9.0343536,15.602593 9.007454,11.191535 9.4723134,9.8523584 12.049149,6.9175042 19.831247,-1.9458149 35.530876,-1.571481 42.398021,7.641127 c 1.786942,2.397273 2.104529,4.23003 2.104529,12.145013 0,7.158549 -0.37558,9.752139 -1.618507,11.176669 -0.89018,1.020244 -1.865792,3.81172 -2.168028,6.203281 -0.323815,2.562315 -1.507331,5.388931 -2.881492,6.881919 -2.630863,2.858361 -9.316382,6.229597 -12.331973,6.218513 -1.718046,-0.0063 -1.554535,-0.390907 1.15984,-2.728038 z"
     style="fill:#000000" />
</svg>
