<?xml version="1.0" encoding="UTF-8" standalone="no"?>
<!-- Created with Inkscape (http://www.inkscape.org/) -->

<svg
   xmlns:dc="http://purl.org/dc/elements/1.1/"
   xmlns:cc="http://creativecommons.org/ns#"
   xmlns:rdf="http://www.w3.org/1999/02/22-rdf-syntax-ns#"
   xmlns:svg="http://www.w3.org/2000/svg"
   xmlns="http://www.w3.org/2000/svg"
   xmlns:sodipodi="http://sodipodi.sourceforge.net/DTD/sodipodi-0.dtd"
   xmlns:inkscape="http://www.inkscape.org/namespaces/inkscape"
   width="50px"
   height="50px"
   viewBox="0 0 50 50"
   version="1.1"
   id="SVGRoot"
   inkscape:version="0.92.2 (unknown)"
   sodipodi:docname="logo.svg">
  <sodipodi:namedview
     id="base"
     pagecolor="#ffffff"
     bordercolor="#666666"
     borderopacity="1.0"
     inkscape:pageopacity="0.0"
     inkscape:pageshadow="2"
     inkscape:zoom="5.12"
     inkscape:cx="25"
     inkscape:cy="25"
     inkscape:document-units="px"
     inkscape:current-layer="layer1"
     showgrid="false"
     inkscape:window-width="1920"
     inkscape:window-height="1022"
     inkscape:window-x="0"
     inkscape:window-y="30"
     inkscape:window-maximized="1"
     inkscape:grid-bbox="true" />
  <defs
     id="defs1431" />
  <metadata
     id="metadata1434">
    <rdf:RDF>
      <cc:Work
         rdf:about="">
        <dc:format>image/svg+xml</dc:format>
        <dc:type
           rdf:resource="http://purl.org/dc/dcmitype/StillImage" />
        <dc:title></dc:title>
      </cc:Work>
    </rdf:RDF>
  </metadata>
  <g
     id="layer1"
     inkscape:groupmode="layer"
     inkscape:label="Layer 1">
    <g
       id="g2631"
       transform="matrix(5.9354037,0,0,5.9354037,-112.18544,-139.47812)">
      <circle
         r="3.8033853"
         cy="27.810081"
         cx="23.08017"
         id="path2593"
         style="opacity:1;fill:#251f1e;fill-opacity:1;fill-rule:nonzero;stroke:#ffffff;stroke-width:0.26499999;stroke-miterlimit:4;stroke-dasharray:none;stroke-opacity:1" />
      <path
         inkscape:connector-curvature="0"
         id="path2595"
         d="m 22.811137,31.629812 c -1.618206,-0.125335 -2.980031,-1.260643 -3.386941,-2.823579 -0.07629,-0.293013 -0.103973,-0.49146 -0.114801,-0.822822 -0.02185,-0.668702 0.106866,-1.259824 0.400346,-1.838521 0.704519,-1.389213 2.186962,-2.209008 3.731945,-2.063781 1.756885,0.165147 3.175826,1.535784 3.402728,3.286894 0.03318,0.256049 0.03397,0.687049 0.0016,0.945593 -0.180222,1.445342 -1.166933,2.657131 -2.544701,3.125175 -0.461207,0.156676 -1.015912,0.227783 -1.490301,0.191041 z"
         style="opacity:1;fill:#ffffff;fill-opacity:1;fill-rule:nonzero;stroke:#ffffff;stroke-width:0.0173025;stroke-miterlimit:4;stroke-dasharray:none;stroke-opacity:1" />
      <path
         sodipodi:nodetypes="cccccccccccccccccccssssccsccccsscccccccsccccsssccsscccccccsscccsssssasssa"
         inkscape:connector-curvature="0"
         id="path2612"
         d="m 20.340095,29.833381 c -0.204435,-0.317076 -0.227393,-0.429516 -0.127244,-0.623184 0.368494,-0.712586 1.86006,-3.335303 1.903394,-3.407844 0.03191,-0.05736 0.06087,-0.09307 0.07847,-0.127141 0.03383,-0.05859 0.107166,-0.194781 0.218484,-0.394526 l 0.202931,-0.363173 0.351166,0.01713 0.351166,0.01713 1.304785,2.214876 1.304785,2.214875 -0.162689,0.276922 -0.162688,0.276922 -2.588558,0.01526 -2.588559,0.01527 z m 5.0418,-0.08052 c -0.04137,-0.107796 -2.021118,-3.425747 -2.090342,-3.503292 -0.0249,-0.02789 -0.08864,0.03317 -0.141658,0.135688 l -0.09639,0.186398 0.824282,1.399889 c 0.453356,0.769939 0.824283,1.414644 0.824283,1.432678 0,0.01803 -0.98939,0.03279 -2.198645,0.03279 -1.209254,0 -2.198644,0.01572 -2.198644,0.03492 0,0.01921 0.04527,0.111553 0.100587,0.205207 l 0.100586,0.17028 h 2.456114 c 2.235519,0 2.452854,-0.0085 2.419827,-0.09456 z m 0.354676,-0.358084 c 0.01911,-0.07611 -0.0035,-0.16635 -0.05438,-0.217254 -0.04789,-0.04789 -0.6081,-0.973005 -1.244917,-2.055818 -0.636817,-1.082813 -1.165935,-1.960664 -1.175818,-1.950781 -0.0099,0.0099 -0.237306,0.402133 -0.505381,0.871664 -0.268651,0.470538 -0.738722,1.210361 -0.776306,1.197833 -0.04135,-0.01378 0.314366,-0.671084 0.563642,-1.104597 0.226119,-0.393249 0.448817,-0.787553 0.494885,-0.876232 l 0.08376,-0.161234 H 22.89823 22.674401 l -0.813648,1.451105 c -0.447506,0.798108 -0.828964,1.464297 -0.847684,1.480421 -0.01872,0.01612 -0.09202,0.148042 -0.162901,0.293152 -0.07088,0.145111 -0.22411,0.428736 -0.340521,0.630278 l -0.211655,0.366441 h 2.143409 c 1.483228,0 2.158256,0.0025 2.154779,-0.02142 -0.0033,-0.02257 0.0091,0.04472 -0.0341,0.04472 -0.04319,0 -0.109621,-0.122804 -0.146352,-0.203421 l -0.121557,-0.230292 h -1.642912 c -0.903601,0 -1.642911,-0.01851 -1.642911,-0.04114 0,-0.120698 1.813099,-3.196322 1.858343,-3.151079 0.03091,0.03091 -0.876288,1.66577 -1.172226,2.177163 l -0.502583,0.868482 0.214601,0.01899 c 0.11803,0.01044 0.222664,-0.0028 0.232519,-0.02931 0.06901,-0.186035 1.595789,-2.744245 1.635371,-2.740172 0.07611,0.0078 1.183807,1.927273 1.245435,2.033357 0.02615,0.04029 0.04959,0.08675 0.06143,0.106172 0.04092,0.06711 0.249125,0.391038 0.502414,0.817011 0.420454,0.707106 0.467474,0.764997 0.540373,0.665329 0.04391,-0.06004 0.09456,-0.167751 0.112538,-0.239352 z m -3.496983,-1.306263 c 0,-0.03224 -0.02638,-0.05863 -0.05863,-0.05863 -0.03224,0 -0.05863,0.02638 -0.05863,0.05863 0,0.03225 0.02638,0.05863 0.05863,0.05863 0.03225,0 0.05863,-0.02638 0.05863,-0.05863 z m 1.17261,0 c 0,-0.03224 -0.02639,-0.05863 -0.05863,-0.05863 -0.03225,0 -0.05863,0.02638 -0.05863,0.05863 0,0.03225 0.02638,0.05863 0.05863,0.05863 0.03225,0 0.05863,-0.02638 0.05863,-0.05863 z"
         style="fill:#000000;stroke-width:0.05863052" />
      <path
         inkscape:connector-curvature="0"
         id="path2620"
         d="m 22.199445,28.2804 c -0.01702,-0.0034 -0.04651,-0.01765 -0.06143,-0.03 -0.03453,-0.02867 -0.05479,-0.07082 -0.05468,-0.113902 1.55e-4,-0.06475 0.0466,-0.124743 0.109614,-0.141508 0.01871,-0.0046 0.05491,-0.0046 0.07426,1.13e-4 0.02416,0.006 0.0454,0.01898 0.06544,0.03903 0.02992,0.02994 0.04299,0.06154 0.04299,0.104076 0,0.09156 -0.08431,0.159618 -0.176191,0.142224 z"
         style="opacity:1;fill:#000000;fill-opacity:1;fill-rule:nonzero;stroke:#ffffff;stroke-width:0.00261435;stroke-miterlimit:4;stroke-dasharray:none;stroke-opacity:0.00552488" />
      <path
         style="opacity:1;fill:#000000;fill-opacity:1;fill-rule:nonzero;stroke:#ffffff;stroke-width:0.00261435;stroke-miterlimit:4;stroke-dasharray:none;stroke-opacity:0.00552488"
         d="m 23.321977,28.248244 c -0.01702,-0.0034 -0.04651,-0.01765 -0.06143,-0.03 -0.03453,-0.02867 -0.05479,-0.07082 -0.05468,-0.113902 1.55e-4,-0.06475 0.0466,-0.124743 0.109614,-0.141508 0.01871,-0.0046 0.05491,-0.0046 0.07426,1.13e-4 0.02416,0.006 0.0454,0.01898 0.06544,0.03903 0.02992,0.02994 0.04299,0.06154 0.04299,0.104076 0,0.09156 -0.08431,0.159618 -0.176191,0.142224 z"
         id="path2624"
         inkscape:connector-curvature="0" />
    </g>
  </g>
</svg>
